<?xml version="1.0" encoding="UTF-8" standalone="no"?>
<!-- Created with Inkscape (http://www.inkscape.org/) -->

<svg
   width="83.657608mm"
   height="83.64946mm"
   viewBox="0 0 83.657608 83.64946"
   version="1.1"
   id="svg5"
   xml:space="preserve"
   inkscape:version="1.2.2 (b0a8486541, 2022-12-01)"
   sodipodi:docname="artifactory.svg"
   xmlns:inkscape="http://www.inkscape.org/namespaces/inkscape"
   xmlns:sodipodi="http://sodipodi.sourceforge.net/DTD/sodipodi-0.dtd"
   xmlns="http://www.w3.org/2000/svg"
   xmlns:svg="http://www.w3.org/2000/svg"><sodipodi:namedview
     id="namedview7"
     pagecolor="#ffffff"
     bordercolor="#000000"
     borderopacity="0.25"
     inkscape:showpageshadow="2"
     inkscape:pageopacity="0.0"
     inkscape:pagecheckerboard="0"
     inkscape:deskcolor="#d1d1d1"
     inkscape:document-units="mm"
     showgrid="false"
     inkscape:zoom="0.25120155"
     inkscape:cx="-593.14921"
     inkscape:cy="833.99168"
     inkscape:window-width="1873"
     inkscape:window-height="1190"
     inkscape:window-x="0"
     inkscape:window-y="0"
     inkscape:window-maximized="1"
     inkscape:current-layer="layer1" /><defs
     id="defs2" /><g
     inkscape:label="Layer 1"
     inkscape:groupmode="layer"
     id="layer1"
     transform="translate(163.81233,-589.39364)"><path
       style="fill:#000000;stroke-width:1"
       d="m -97.156631,671.4483 c -3.815229,-0.59432 -6.088589,-2.81012 -5.887859,-5.73879 0.0316,-0.46177 0.13323,-1.02071 0.22574,-1.24212 l 0.1682,-0.40255 h 2.22809 c 2.080739,0 2.222769,0.0125 2.14763,0.18875 -0.04425,0.10382 -0.103938,0.46951 -0.132629,0.81265 -0.09201,1.10045 0.439083,1.97374 1.461333,2.40285 1.090102,0.45757 3.636259,0.41613 4.78463,-0.0779 1.14916,-0.49436 1.875056,-1.76549 1.599603,-2.8011 -0.401591,-1.50983 -1.135078,-1.7803 -5.228797,-1.92804 -3.570042,-0.12884 -4.75625,-0.38659 -5.5188,-1.19914 -1.01523,-1.08181 -0.85413,-3.22018 0.30941,-4.10691 0.46056,-0.35099 1.31256,-0.78036 1.892822,-0.95387 0.457128,-0.13671 0.617554,-0.31865 0.280957,-0.31865 -0.09759,0 -0.531709,-0.17041 -0.964725,-0.37867 -1.884294,-0.90631 -2.785734,-2.51141 -2.785734,-4.9602 0,-1.98401 0.59398,-3.42617 1.91484,-4.64909 1.281151,-1.18614 2.805148,-1.79305 4.982937,-1.98438 1.411645,-0.12404 2.546621,-8.2e-4 4.516254,0.48955 0.825077,0.2055 1.747247,0.3729 2.049267,0.37203 1.170291,-0.002 2.42524,-0.45355 3.45434,-1.23908 0.282395,-0.21555 0.524442,-0.37647 0.537879,-0.35758 0.1986,0.27912 1.795173,2.89378 1.842807,3.01791 0.08397,0.2188 -0.569647,0.74492 -1.420786,1.14365 -0.57334,0.26859 -0.741897,0.29488 -1.891328,0.29488 h -1.261893 l 0.170421,0.26032 c 0.676184,1.03291 0.9277,1.87773 0.918778,3.08608 -0.02368,3.20906 -2.680611,5.53598 -6.546758,5.7336 -1.046671,0.0535 -1.259911,0.0991 -1.810387,0.38785 -0.621841,0.3261 -1.263505,0.93197 -1.263505,1.19302 0,0.0756 0.06876,0.23146 0.152805,0.3464 0.141457,0.19345 0.351838,0.21429 2.831222,0.28028 3.771346,0.10034 4.784938,0.39583 6.194887,1.8058 1.142677,1.14266 1.603494,2.32372 1.603494,4.10967 0,3.53525 -2.357237,5.82635 -6.650615,6.46402 -1.048965,0.15579 -3.757001,0.1275 -4.90453,-0.0513 z m 3.930686,-18.16898 c 1.031917,-0.4855 1.43263,-1.32506 1.350642,-2.82981 -0.05208,-0.9558 -0.200839,-1.35149 -0.696653,-1.85312 -0.981816,-0.99331 -3.24585,-1.07937 -4.289486,-0.16304 -0.630855,0.55389 -0.869523,1.18829 -0.869523,2.31127 0,0.80031 0.04443,1.06115 0.253152,1.48597 0.482798,0.98266 1.384988,1.40067 2.87354,1.3314 0.603941,-0.0281 1.017521,-0.11294 1.378328,-0.28267 z m -61.197555,15.98831 c -0.54822,-0.637 -1.06956,-1.24453 -1.15851,-1.35006 -0.14604,-0.17323 -0.13864,-0.20805 0.0762,-0.3585 0.90497,-0.63386 2.09353,-1.91573 2.53987,-2.73923 0.14468,-0.26694 0.34806,-0.84937 0.45197,-1.29427 0.17291,-0.74044 0.19252,-1.87952 0.23162,-13.45504 l 0.0426,-12.6461 h 2.53195 2.53194 l -0.0354,12.86181 c -0.0351,12.75343 -0.0375,12.8691 -0.26674,13.72468 -0.47014,1.75418 -1.18465,2.93806 -2.54861,4.22282 -0.85418,0.80458 -2.13521,1.66985 -3.00212,2.02776 l -0.39797,0.16431 z m 40.6829,-4.88215 c -1.61582,-0.33893 -2.82668,-0.98143 -3.95512,-2.09867 -1.90569,-1.88674 -2.84099,-4.49329 -2.84515,-7.92901 -0.006,-5.1036 2.27552,-8.8568 6.08973,-10.01714 1.11917,-0.34046 3.36645,-0.38604 4.47739,-0.0908 1.2554,0.33363 2.4207,0.98849 3.36594,1.89157 1.48631,1.42001 2.30818,2.96487 2.74575,5.16122 0.2913,1.46203 0.26053,4.57188 -0.06,6.07248 -0.71707,3.35635 -2.69801,5.82465 -5.40707,6.73731 -0.80139,0.26998 -1.10049,0.31201 -2.42418,0.34056 -0.83047,0.0179 -1.72473,-0.0125 -1.98721,-0.0675 z m 2.86259,-3.76265 c 0.73271,-0.33273 1.29306,-1.24004 1.59649,-2.58498 0.44036,-1.95185 0.44611,-5.71582 0.0111,-7.62593 -0.20418,-0.89769 -0.68002,-1.76947 -1.16059,-2.1263 -1.18862,-0.88254 -2.98197,-0.6057 -3.80406,0.58722 -0.68272,0.9907 -0.9702,2.97151 -0.88794,6.11796 0.0955,3.64867 0.50635,4.90131 1.82333,5.55758 0.70553,0.35157 1.74074,0.3834 2.42112,0.0744 z m -19.48078,-3.4338 c -3.3e-4,-7.27883 -0.0765,-9.17978 -0.43936,-10.96062 -0.11935,-0.58566 -0.20273,-1.07545 -0.18529,-1.08844 0.0174,-0.013 0.9728,-0.28214 2.12305,-0.59813 2.02739,-0.55699 2.09594,-0.56827 2.24153,-0.36918 0.23634,0.32322 0.57457,1.53197 0.57457,2.05339 0,0.26069 0.016,0.47398 0.0355,0.47398 0.0195,0 0.49277,-0.44896 1.0516,-0.99767 1.17495,-1.1537 1.81087,-1.53306 2.86036,-1.70639 0.63512,-0.10493 0.86142,-0.0964 1.44857,0.0538 0.38271,0.098 0.73837,0.22079 0.79035,0.27277 0.073,0.073 -1.0401,4.22824 -1.18137,4.41037 -0.0161,0.0208 -0.2145,-0.0237 -0.44092,-0.0986 -1.11996,-0.37107 -2.41249,-0.0282 -3.45862,0.91735 l -0.56625,0.51182 v 7.05457 7.05458 h -2.42676 -2.42675 l -2.1e-4,-6.98368 z m -13.91317,-6.44441 v -13.32019 h 0.29761 c 0.16368,0 0.95906,0.14531 1.7675,0.32293 2.97679,0.65401 7.39732,1.31254 10.52709,1.56822 0.73046,0.0597 0.88812,0.10443 0.88039,0.25022 -0.005,0.0977 -0.0667,0.59006 -0.13668,1.09429 l -0.12722,0.91678 -4.06972,0.0282 -4.06973,0.0282 v 3.12652 3.12653 h 3.23568 3.23568 v 2.15712 2.15712 h -3.23568 -3.23568 v 5.93209 5.93206 h -2.53462 -2.53462 z m 41.52456,-13.07025 c -1.83934,-0.0841 -1.82525,-0.13422 0.16178,-0.5756 10.076065,-2.23814 16.915858,-6.3384 18.729538,-11.22786 0.389452,-1.04991 0.529926,-2.66191 0.318057,-3.64984 -0.06784,-0.3163 -0.09775,-0.6007 -0.06648,-0.63198 0.03127,-0.0312 0.558196,0.44937 1.170935,1.06807 0.960002,0.96934 1.183705,1.26652 1.617631,2.14883 0.93058,1.89215 0.882828,3.43317 -0.168181,5.42758 -0.463791,0.88011 -2.127967,2.55203 -3.319907,3.33539 -4.439841,2.91787 -11.251592,4.43414 -18.443373,4.10541 z m -19.79157,-2.83805 c -8.53582,-0.54771 -15.72082,-2.18055 -20.41261,-4.63891 -5.47651,-2.86954 -6.93399,-6.47323 -3.9302,-9.71761 0.38394,-0.41467 0.97708,-0.96866 1.31808,-1.23105 l 0.62004,-0.47711 -0.21243,0.67095 c -1.4376,4.5407 5.20457,8.92601 16.19969,10.69536 13.81668,2.22341 29.628014,-0.25172 35.397169,-5.54115 1.260487,-1.15568 2.028856,-2.62464 2.028856,-3.87877 0,-0.71904 -0.277708,-1.70521 -0.650608,-2.31039 -0.176055,-0.28573 -0.320096,-0.53929 -0.320096,-0.56345 0,-0.0242 0.254807,0.10554 0.566243,0.28832 3.071594,1.80258 4.645657,3.94202 4.467121,6.07164 -0.423485,5.05133 -10.335243,9.34753 -24.285665,10.52649 -1.80395,0.15245 -8.9634,0.22261 -10.78559,0.10567 z m -29.66948,-8.09967 c -0.88931,-0.61529 -2.03873,-1.76592 -2.46804,-2.47066 -2.02211,-3.31942 0.40759,-6.86372 6.24681,-9.11241 0.65543,-0.2524 1.4829,-0.54074 1.83882,-0.64074 0.35594,-0.10003 0.74422,-0.20931 0.86285,-0.24291 0.11861,-0.0337 -0.24537,0.24264 -0.80891,0.61387 -5.18754,3.41724 -7.08764,7.69318 -5.18769,11.67413 0.1628,0.34109 0.26409,0.62017 0.22509,0.62017 -0.039,0 -0.358,-0.19865 -0.70893,-0.44145 z m 29.72342,0.31918 c -6.37817,-0.47245 -11.1876,-2.12486 -13.84046,-4.75521 -1.04508,-1.03621 -1.71176,-1.94644 -3.41881,-4.66777 -1.69612,-2.70389 -2.6814,-4.12394 -4.04805,-5.83425 -2.79946,-3.50344 -6.82718,-7.39165 -11.31912,-10.92704 -2.60858,-2.05308 -2.85698,-2.31342 -2.85778,-2.99505 -4.1e-4,-0.40002 0.40059,-0.92855 0.90225,-1.18902 0.53424,-0.27739 1.45839,-0.2313 2.02323,0.10085 0.68638,0.40368 0.91811,0.69775 1.34212,1.70309 0.53147,1.26018 1.16101,2.10031 2.78804,3.72074 1.64215,1.63549 2.57409,2.36493 3.81622,2.9871 1.42336,0.7129 2.34169,0.69333 3.41937,-0.0728 0.28217,-0.20061 0.57778,-0.3399 0.65691,-0.30953 0.0791,0.0304 0.44001,0.62095 0.80197,1.31239 1.23186,2.35329 3.23367,5.14795 5.62953,7.8592 1.48096,1.67592 2.02098,2.13963 3.40256,2.92162 5.05784,2.86289 9.25132,2.4458 15.5016,-1.5418 1.87481,-1.1961 2.53849,-1.44871 3.28901,-1.25185 0.26727,0.0702 0.95397,0.44049 1.52599,0.8231 1.72729,1.15537 2.60914,1.4194 4.38628,1.31331 1.84215,-0.10999 3.51145,-0.66901 7.1389,-2.39076 1.2754,-0.60536 2.649216,-1.23672 3.05293,-1.40302 1.659297,-0.68353 2.766029,-1.70834 4.86539,-4.5052 1.400643,-1.86599 1.675981,-2.08854 2.472969,-1.99871 0.901684,0.1016 1.688581,0.9736 1.688581,1.87113 0,0.52801 -0.614663,1.15967 -1.298185,1.33405 -2.15039,0.54866 -2.890946,0.96097 -4.369078,2.43252 -0.933897,0.92972 -1.153309,1.21993 -1.590172,2.10318 -0.548703,1.10937 -1.023422,2.64617 -1.642083,5.31588 -0.620309,2.67683 -1.229663,3.67692 -2.825722,4.63761 -2.87135,1.7283 -8.13276,2.98839 -14.26805,3.4171 -1.81682,0.12696 -5.43934,0.12156 -7.22634,-0.0111 z m -13.33348,-14.74479 c -0.64354,-0.46618 -1.59694,-1.56697 -2.418,-2.7918 l -0.73935,-1.10296 0.36986,-0.54961 c 0.46599,-0.69247 0.62478,-1.24997 0.62829,-2.20584 0.004,-0.96191 -0.18144,-1.73752 -0.65139,-2.73117 -0.48543,-1.02636 -1.01503,-1.54124 -2.13037,-2.07115 -1.56781,-0.74484 -2.2206,-1.6152 -2.05247,-2.73645 0.14077,-0.93863 0.88011,-1.75589 1.45298,-1.60609 0.33133,0.0866 0.80899,0.65321 1.5265,1.81065 1.77549,2.86406 3.45127,4.65906 5.17447,5.54258 1.0998,0.56389 1.79815,0.6963 3.325,0.63035 1.03198,-0.0445 1.51074,-0.12997 2.80801,-0.50085 3.265,-0.93342 3.14708,-0.91704 6.741,-0.93727 3.48794,-0.0196 3.90165,-0.0727 4.83708,-0.62094 1.08032,-0.63311 1.81178,-1.88888 2.33677,-4.01175 0.23214,-0.93875 0.38627,-1.34776 0.58135,-1.54283 0.25438,-0.2544 0.2768,-0.25801 0.53816,-0.0868 0.32995,0.21619 0.41102,0.52653 0.6385,2.44424 0.40713,3.43239 1.60742,5.87134 3.15181,6.40441 1.80623,0.62346 4.30704,0.1127 5.71257,-1.16689 0.29659,-0.27 0.57443,-0.49114 0.6174,-0.49139 0.1667,-8.1e-4 0.40638,0.66253 0.62263,1.7237 0.25706,1.2614 0.49301,1.79381 0.97455,2.19901 0.28381,0.2388 0.44097,0.28319 1.00241,0.28312 1.061467,-10e-5 2.130607,-0.58102 4.410442,-2.39629 2.183854,-1.73883 3.782624,-3.61237 4.790583,-5.61392 1.108878,-2.20194 2.948953,-2.91808 4.07113,-1.58445 0.371279,0.44124 0.446874,0.7836 0.289208,1.30985 -0.174921,0.58383 -0.853111,1.22755 -1.896775,1.80038 -2.490216,1.36678 -3.915545,2.55877 -6.077283,5.0824 -0.685993,0.80082 -1.540075,1.73928 -1.897958,2.08546 -1.194864,1.15581 -3.450847,2.48695 -4.795127,2.82938 -0.91547,0.23322 -1.4469,0.12364 -3.22192,-0.66441 -2.4133,-1.0714 -5.21293,-1.85626 -7.31481,-2.05065 -1.31408,-0.12158 -2.34175,0.24289 -3.94828,1.40008 -1.85979,1.33962 -2.37423,1.42796 -4.21614,0.72411 -2.79007,-1.0662 -4.93515,-1.47373 -7.24625,-1.37669 -1.60681,0.0674 -2.61614,0.27097 -3.90893,0.78817 -0.86645,0.34662 -2.26353,1.13687 -2.98826,1.69023 -0.28707,0.2192 -0.55622,0.39854 -0.59811,0.39854 -0.0418,0 -0.26656,-0.13793 -0.49928,-0.30651 z m 49.355683,-6.25578 c -0.206699,-0.10937 -0.470474,-0.37106 -0.586172,-0.58162 -0.205193,-0.37344 -0.205518,-0.39357 -0.01324,-0.81993 0.405223,-0.89862 1.172712,-1.21585 1.875751,-0.77529 0.511261,0.32037 0.830101,1.07178 0.6659,1.56931 -0.252499,0.76507 -1.127132,1.03866 -1.942227,0.60753 z m -61.605803,-4.40978 c -0.40785,-0.25297 -0.6754,-0.78613 -0.58174,-1.15931 0.0414,-0.16484 0.21461,-0.43908 0.38497,-0.60946 0.25236,-0.25234 0.40277,-0.30975 0.8117,-0.30975 0.40715,0 0.55956,0.0577 0.80704,0.3051 0.58353,0.58355 0.6265,1.41322 0.0925,1.78722 -0.32127,0.22501 -1.14154,0.21755 -1.51451,-0.0138 z m 62.196945,-5.62588 c -0.805189,-0.35078 -0.856358,-1.80021 -0.09497,-2.68973 0.747826,-0.87367 2.19913,-1.29809 2.890614,-0.84534 0.414701,0.27154 0.743751,1.04075 0.652735,1.5259 -0.105084,0.56016 -0.790728,1.4715 -1.331608,1.76995 -0.505601,0.279 -1.712408,0.41538 -2.116779,0.23922 z m -75.171865,-0.72855 c -0.67421,-0.37597 -2.45723,-1.71024 -2.62251,-1.9625 -0.37682,-0.57509 0.0111,-1.76631 0.74425,-2.28878 0.28824,-0.20525 0.43378,-0.2297 1.10511,-0.18567 1.70372,0.11171 2.87634,1.2774 2.87634,2.85928 0,1.20031 -1.18536,2.08948 -2.10319,1.57767 z m 16.31546,-0.74503 c -0.80687,-0.41418 -1.09699,-0.75932 -1.09699,-1.30502 0,-0.55551 0.3328,-0.82245 1.09402,-0.87751 1.21708,-0.088 1.82376,0.44941 1.76579,1.56425 -0.0156,0.30025 -0.62214,1.0032 -0.85947,0.99612 -0.0977,-0.002 -0.50416,-0.17295 -0.90335,-0.37784 z m 30.67798,-0.0534 c -0.34269,-0.13754 -0.59011,-0.78579 -0.60382,-1.58221 -0.0148,-0.85487 0.20321,-1.11471 0.99914,-1.19119 0.49515,-0.0476 0.57244,-0.0231 0.87184,0.27631 0.28149,0.28148 0.32851,0.40843 0.32851,0.88676 0,1.20907 -0.7385,1.95435 -1.59567,1.61033 z"
       id="path1586" /></g></svg>
