<?xml version="1.0" encoding="UTF-8" standalone="no"?>
<!-- Created with Inkscape (http://www.inkscape.org/) -->

<svg
   width="83.657608mm"
   height="83.64946mm"
   viewBox="0 0 83.657608 83.64946"
   version="1.1"
   id="svg5"
   xml:space="preserve"
   inkscape:version="1.2.2 (b0a8486541, 2022-12-01)"
   sodipodi:docname="cmake.svg"
   xmlns:inkscape="http://www.inkscape.org/namespaces/inkscape"
   xmlns:sodipodi="http://sodipodi.sourceforge.net/DTD/sodipodi-0.dtd"
   xmlns="http://www.w3.org/2000/svg"
   xmlns:svg="http://www.w3.org/2000/svg"><sodipodi:namedview
     id="namedview7"
     pagecolor="#ffffff"
     bordercolor="#000000"
     borderopacity="0.25"
     inkscape:showpageshadow="2"
     inkscape:pageopacity="0.0"
     inkscape:pagecheckerboard="0"
     inkscape:deskcolor="#d1d1d1"
     inkscape:document-units="mm"
     showgrid="false"
     inkscape:zoom="1.8568784"
     inkscape:cx="160.48439"
     inkscape:cy="99.360302"
     inkscape:window-width="1873"
     inkscape:window-height="1190"
     inkscape:window-x="0"
     inkscape:window-y="0"
     inkscape:window-maximized="1"
     inkscape:current-layer="layer1"
     showguides="true" /><defs
     id="defs2"><path
       id="SVGID_1_"
       d="m147.49 30.14 51.21 29.61 51.08-27.24-52.39-25.78z" /></defs><g
     inkscape:label="Layer 1"
     inkscape:groupmode="layer"
     id="layer1"
     transform="translate(163.81233,-589.39364)"><path
       style="fill:#000000;stroke-width:0.13711"
       d="m -163.81233,670.64245 c 0,-0.0676 5.6216,-10.72569 12.49245,-23.68469 13.31129,-25.10622 18.92881,-35.72684 25.25681,-47.75115 2.17154,-4.12631 3.9801,-7.50105 4.01903,-7.49941 0.0389,0.002 2.12996,3.89245 4.64675,8.64626 2.51679,4.7538 6.56026,12.36756 8.98549,16.91946 9.864362,18.51436 17.786218,33.44885 22.878073,43.13035 l 5.379006,10.22748 -0.583461,0.0306 c -1.95121,0.10245 -83.074158,0.084 -83.074148,-0.0189 z m 66.715951,-0.87242 15.377552,-0.0813 -4.346064,-8.27618 c -5.080309,-9.6744 -9.398058,-17.82119 -20.540859,-38.75676 -4.47119,-8.40066 -9.75801,-18.34601 -11.74848,-22.10078 -1.99047,-3.75477 -3.66196,-6.82805 -3.71441,-6.82953 -0.0524,-0.002 -0.13314,0.11202 -0.17934,0.25221 -0.0645,0.19563 0.6461,7.6751 1.10721,11.65473 0.0343,0.29606 0.1017,0.96219 0.14977,1.48029 0.0481,0.51811 0.10995,1.0934 0.13752,1.27844 0.0276,0.18504 0.0928,0.82089 0.14507,1.413 0.0522,0.59212 0.11172,1.16742 0.13222,1.27844 0.0205,0.11102 0.0797,0.65604 0.13147,1.21115 0.0518,0.55511 0.12127,1.22124 0.15435,1.48029 0.033,0.25905 0.37398,3.49888 0.75759,7.19961 0.3836,3.70073 0.73783,7.09617 0.78718,7.54543 l 0.0897,0.81682 -11.00889,10.01623 c -6.05488,5.50892 -15.69646,14.27531 -21.42573,19.48086 -8.70358,7.90798 -10.49358,9.59563 -10.8834,10.26112 l -0.46656,0.79649 24.98326,-0.0196 c 13.74079,-0.0108 31.90316,-0.0562 40.360811,-0.10093 z"
       id="path13794" /><path
       style="fill:#878787;fill-opacity:1;stroke:#4b4b4b;stroke-width:0.103642;stroke-linejoin:bevel;stroke-dasharray:none;stroke-opacity:1;stop-color:#000000"
       d="m -162.44045,669.8906 80.721622,-0.20186 -57.975632,-21.2146 z"
       id="path14622"
       sodipodi:nodetypes="cccc" /><path
       style="fill:#000000;fill-opacity:1;stroke:none;stroke-width:0.103642;stroke-linejoin:bevel;stroke-dasharray:none;stroke-opacity:1;stop-color:#000000"
       d="m -162.44045,669.8906 43.78458,-40.5547 -3.41277,-35.61041 z"
       id="path14624" /><path
       style="fill:#4f4f4f;fill-opacity:1;stroke:#343434;stroke-width:0.259106;stroke-linejoin:bevel;stroke-dasharray:none;stroke-opacity:1;stop-color:#000000"
       d="m -122.06864,593.72549 6.10797,63.43338 34.241842,12.52987 -40.349812,-75.96325 v 0"
       id="path14635"
       sodipodi:nodetypes="ccccc" /></g><style
     id="style1741">.st0{fill-rule:evenodd;clip-rule:evenodd;fill:#6699cb}</style></svg>
