<?xml version="1.0" encoding="UTF-8" standalone="no"?>
<!-- Created with Inkscape (http://www.inkscape.org/) -->

<svg
   width="83.657608mm"
   height="83.64946mm"
   viewBox="0 0 83.657608 83.64946"
   version="1.1"
   id="svg5"
   xml:space="preserve"
   inkscape:version="1.2.2 (b0a8486541, 2022-12-01)"
   sodipodi:docname="conan.svg"
   xmlns:inkscape="http://www.inkscape.org/namespaces/inkscape"
   xmlns:sodipodi="http://sodipodi.sourceforge.net/DTD/sodipodi-0.dtd"
   xmlns="http://www.w3.org/2000/svg"
   xmlns:svg="http://www.w3.org/2000/svg"><sodipodi:namedview
     id="namedview7"
     pagecolor="#ffffff"
     bordercolor="#000000"
     borderopacity="0.25"
     inkscape:showpageshadow="2"
     inkscape:pageopacity="0.0"
     inkscape:pagecheckerboard="0"
     inkscape:deskcolor="#d1d1d1"
     inkscape:document-units="mm"
     showgrid="false"
     inkscape:zoom="0.28845788"
     inkscape:cx="225.33619"
     inkscape:cy="-84.934409"
     inkscape:window-width="1873"
     inkscape:window-height="1190"
     inkscape:window-x="0"
     inkscape:window-y="0"
     inkscape:window-maximized="1"
     inkscape:current-layer="layer1"
     showguides="true" /><defs
     id="defs2"><path
       id="SVGID_1_"
       d="m147.49 30.14 51.21 29.61 51.08-27.24-52.39-25.78z" /></defs><g
     inkscape:label="Layer 1"
     inkscape:groupmode="layer"
     id="layer1"
     transform="translate(163.81233,-589.39364)"><g
       id="g2493"
       transform="matrix(2.8584162,0,0,2.8584162,198.98816,-1438.8197)"><path
         class="st0"
         d="m -112.27417,724.9503 -13.51492,-7.83695 v 12.56506 l 13.51492,8.90323 z"
         id="path1743"
         style="fill:#3f3f3f;fill-opacity:1;stroke-width:0.264583" /><path
         style="fill:url(#SVGID_3_);stroke-width:0.264583"
         d="m -125.82348,710.9221 h 27.06687 v 14.02556 h -27.06687 z"
         clip-path="url(#SVGID_2_)"
         id="path1756" /><path
         style="clip-rule:evenodd;fill:#3f3f3f;fill-opacity:1;fill-rule:evenodd;stroke-width:0.264583"
         d="m -112.27417,724.9503 13.514914,-7.20725 v 12.56242 l -13.514914,8.27617 z"
         id="path1758" /><path
         class="st0"
         d="m -112.21332,714.29818 -0.78316,0.0873 -0.11378,0.0476 -0.12435,0.003 -0.11112,0.0476 -0.61119,0.14552 -0.0873,0.037 -0.082,0.003 -0.0741,0.0609 -1.12977,0.41804 -0.0582,0.045 c -0.51064,0.19844 -0.92339,0.47625 -1.36525,0.70379 l -0.0503,0.0529 c -0.39687,0.22225 -0.5371,0.33867 -0.81492,0.61383 l -0.0661,0.045 -0.28046,0.37571 -0.0556,0.0476 -0.0926,0.18786 -0.0503,0.0529 c -0.3175,0.7276 -0.31221,0.84402 -0.24606,1.69333 l 0.0556,0.0847 v 0.0873 l 0.0397,0.0767 0.10583,0.26193 0.045,0.0609 0.0476,0.13494 0.0556,0.0476 c 0.1614,0.29104 0.36248,0.52123 0.55563,0.7329 0.10847,0.11906 0.5715,0.49477 0.75406,0.58737 l 0.0503,0.0556 c 0.37042,0.17728 0.64558,0.39953 1.11654,0.56357 l 0.0635,0.0423 0.91281,0.28575 0.10319,0.0503 c 0.31485,0.0344 0.64558,0.127 0.99483,0.17198 0.381,0.0503 0.58209,-0.13229 0.89959,-0.26987 l 0.0609,-0.045 h 0.0423 l 0.0609,-0.045 1.44727,-0.66675 0.0609,-0.045 h 0.0423 l 0.0609,-0.045 0.83344,-0.39423 -0.0741,-0.0317 c -0.48948,-0.0212 -1.06892,0.0529 -1.59809,0.0397 -0.53181,-0.0132 -1.02394,-0.11113 -1.51077,-0.13229 l -0.10319,-0.0503 c -0.35189,-0.0344 -0.70379,-0.18256 -1.00806,-0.28575 l -0.0661,-0.0423 c -0.48948,-0.17462 -0.93928,-0.56092 -1.15094,-0.96044 -0.33602,-0.635 -0.127,-1.10595 0.127,-1.64306 l 0.0556,-0.0476 0.045,-0.0873 0.0582,-0.0476 c 0.26194,-0.37306 0.90752,-0.89165 1.54252,-1.09273 l 0.0661,-0.0423 0.67205,-0.1905 0.0979,-0.0503 0.10319,0.005 0.10319,-0.0503 0.44714,-0.0371 c 0.10848,-0.0714 0.16404,-0.0608 0.3175,-0.0635 h 1.03982 c 0.16404,-0.005 0.30691,-0.005 0.42333,0.0609 l 0.60589,0.082 0.0741,0.0582 c 0.36777,0.0529 0.67469,0.25664 0.98425,0.37041 l 0.0529,0.0503 0.19315,0.09 0.0503,0.0529 c 0.32544,0.17198 0.90223,0.70115 1.02394,1.12183 l 0.0423,0.0688 c 0.13759,0.47625 0.10319,0.635 -0.003,1.10331 l -0.0423,0.0873 -0.16933,0.36513 0.254,-0.10319 0.0556,-0.0476 2.00025,-1.03452 0.0556,-0.0476 0.4789,-0.23548 0.0556,-0.0476 0.4789,-0.23548 0.0556,-0.0529 c 0.0185,-0.10319 -0.6006,-0.61384 -0.73289,-0.73819 l -0.0476,-0.0661 c -0.1614,-0.13758 -0.39423,-0.33866 -0.58473,-0.45773 l -0.0476,-0.0582 c -0.1905,-0.10848 -0.3519,-0.27782 -0.53711,-0.36777 l -0.0503,-0.0529 -0.48419,-0.27781 -0.0503,-0.0529 -0.62971,-0.32808 -0.0609,-0.045 -0.81227,-0.33602 -0.0688,-0.0423 -0.48948,-0.13758 -0.0767,-0.0582 h -0.0847 l -0.0953,-0.0423 h -0.09 l -0.0847,-0.0556 c -0.39952,-0.0371 -0.83873,-0.16669 -1.28588,-0.20903 -0.5371,-0.0476 -1.06098,0.0132 -1.54252,-0.0291 z"
         id="path1760"
         style="fill:#3f3f3f;fill-opacity:1;stroke-width:0.264583" /><path
         style="clip-rule:evenodd;fill:#000000;fill-opacity:1;fill-rule:evenodd;stroke-width:0.264583"
         d="m -105.27859,721.21968 0.50536,-0.26988 v 13.03867 l -0.50536,0.30956 z"
         id="path1762" /><path
         id="path2290"
         style="fill:none;stroke:#000000;stroke-width:0.2;stroke-dasharray:none;stroke-opacity:1;stop-color:#000000"
         d="m -125.5858,717.11335 13.29706,-7.19905 13.327296,7.82877 -13.312166,7.20725 -13.31218,-7.83695 z"
         sodipodi:nodetypes="cccccc" /></g><path
       style="fill:#000000;fill-opacity:1;stroke:none;stroke-width:0.571683;stroke-linejoin:bevel;stroke-dasharray:none;stroke-opacity:1;stop-color:#000000"
       d="m -121.93815,672.35411 -0.28498,-0.18866 h 0.57091"
       id="path2551"
       sodipodi:nodetypes="ccc" /></g><style
     id="style1741">.st0{fill-rule:evenodd;clip-rule:evenodd;fill:#6699cb}</style></svg>
