<?xml version="1.0" encoding="UTF-8" standalone="no"?>
<!-- Created with Inkscape (http://www.inkscape.org/) -->

<svg
   width="83.657608mm"
   height="83.64946mm"
   viewBox="0 0 83.657608 83.64946"
   version="1.1"
   id="svg5"
   xml:space="preserve"
   inkscape:version="1.2.2 (b0a8486541, 2022-12-01)"
   sodipodi:docname="cpp.svg"
   xmlns:inkscape="http://www.inkscape.org/namespaces/inkscape"
   xmlns:sodipodi="http://sodipodi.sourceforge.net/DTD/sodipodi-0.dtd"
   xmlns="http://www.w3.org/2000/svg"
   xmlns:svg="http://www.w3.org/2000/svg"><sodipodi:namedview
     id="namedview7"
     pagecolor="#ffffff"
     bordercolor="#000000"
     borderopacity="0.25"
     inkscape:showpageshadow="2"
     inkscape:pageopacity="0.0"
     inkscape:pagecheckerboard="0"
     inkscape:deskcolor="#d1d1d1"
     inkscape:document-units="mm"
     showgrid="false"
     inkscape:zoom="0.34821169"
     inkscape:cx="-818.46764"
     inkscape:cy="-90.462213"
     inkscape:window-width="1873"
     inkscape:window-height="1190"
     inkscape:window-x="0"
     inkscape:window-y="0"
     inkscape:window-maximized="1"
     inkscape:current-layer="layer1" /><defs
     id="defs2" /><g
     inkscape:label="Layer 1"
     inkscape:groupmode="layer"
     id="layer1"
     transform="translate(163.81233,-589.39364)"><path
       style="fill:#000000;stroke-width:0.999997"
       d="m -123.90319,672.91626 c -0.72961,-0.19595 -1.01476,-0.33992 -3.34182,-1.68725 -0.44533,-0.25785 -1.17405,-0.67915 -1.61939,-0.93622 -0.44533,-0.25708 -1.08997,-0.62946 -1.43253,-0.82751 -0.34256,-0.19805 -0.97318,-0.5619 -1.40138,-0.80855 -0.42822,-0.24664 -1.14992,-0.6631 -1.60383,-0.92545 -0.45389,-0.26236 -1.18261,-0.6833 -1.61937,-0.93542 -0.43678,-0.25212 -1.07441,-0.62044 -1.41697,-0.8185 -0.34256,-0.19805 -0.97319,-0.56189 -1.40139,-0.80853 -0.42821,-0.24665 -1.14992,-0.66311 -1.60382,-0.92546 -0.45389,-0.26236 -1.18962,-0.68722 -1.63495,-0.94414 -0.44533,-0.25693 -1.18106,-0.68235 -1.63496,-0.94538 -0.45389,-0.26303 -1.34378,-0.77676 -1.97751,-1.14162 -1.51863,-0.87432 -3.07975,-1.77555 -4.07961,-2.35516 -0.44533,-0.25814 -1.32821,-0.76788 -1.96195,-1.13275 -0.63374,-0.36486 -1.62172,-0.93444 -2.19551,-1.26571 -0.5738,-0.33128 -1.51273,-0.87226 -2.08652,-1.20216 -1.43692,-0.82619 -1.83224,-1.09656 -2.32756,-1.59189 -0.95326,-0.95326 -1.66669,-2.23356 -1.98907,-3.56955 -0.11741,-0.48656 -0.12022,-0.93289 -0.11959,-18.99664 7.1e-4,-20.09429 -0.0219,-18.77673 0.34045,-19.78842 0.39091,-1.09122 0.94759,-1.96928 1.77162,-2.79443 0.65449,-0.65536 0.64352,-0.64817 3.42969,-2.25169 2.85438,-1.64278 6.66195,-3.83984 7.10039,-4.09709 0.22266,-0.13066 1.10553,-0.64181 1.96194,-1.1359 3.0199,-1.7423 4.56518,-2.63367 6.32183,-3.64666 0.9763,-0.563 2.32164,-1.34006 2.98963,-1.72679 0.66801,-0.38674 2.02735,-1.17155 3.02079,-1.74402 0.99343,-0.57248 2.42284,-1.39866 3.17648,-1.83597 3.012,-1.74774 4.31669,-2.47681 4.71335,-2.63388 1.37281,-0.54361 3.46851,-0.56474 4.94486,-0.0499 0.33322,0.11621 1.31944,0.64721 2.92738,1.57615 2.40159,1.38745 4.08581,2.35962 5.93489,3.42576 1.36694,0.78814 2.83755,1.63716 4.04193,2.33349 0.57378,0.33175 1.47361,0.85129 1.99963,1.15451 1.73639,1.001 3.01872,1.74155 3.83949,2.21733 0.44533,0.25815 1.328213,0.76789 1.961953,1.13276 1.47184,0.84738 3.04912,1.75787 4.079606,2.35494 0.445331,0.25802 1.440317,0.83246 2.211082,1.27653 0.770766,0.44407 1.824718,1.0519 2.342113,1.35074 0.517393,0.29884 1.372242,0.79246 1.899663,1.09695 0.840815,0.48542 1.03597,0.63033 1.584238,1.17645 0.92961,0.92596 1.422226,1.72681 1.881246,3.05838 l 0.233958,0.67866 0.01716,18.62294 c 0.01914,20.77196 0.05539,19.02771 -0.420229,20.2189 -0.487652,1.22132 -1.253661,2.30588 -2.114071,2.99318 -0.27098,0.21647 -0.93659,0.64761 -1.479134,0.9581 -0.542543,0.31049 -5.176602,2.98449 -10.297912,5.94222 -5.121313,2.95773 -11.665813,6.73726 -14.543333,8.39896 -2.87753,1.66169 -5.43651,3.1163 -5.68663,3.23246 -0.8496,0.3946 -1.22524,0.45409 -2.84068,0.44985 -1.22735,-0.004 -1.5052,-0.0218 -1.89565,-0.12665 z m 3.38486,-16.99976 c 2.75838,-0.18432 5.15849,-0.72016 7.72322,-1.72431 0.99779,-0.39065 3.00493,-1.40114 3.89759,-1.96225 3.31477,-2.08356 6.04007,-4.79686 8.0536,-8.01812 0.22392,-0.35823 0.40126,-0.65629 0.39409,-0.66236 -0.0881,-0.0745 -10.71216,-6.1949 -10.72724,-6.17981 -0.0114,0.0114 -0.16616,0.24472 -0.34383,0.51838 -2.10038,3.23539 -5.71312,5.35658 -9.59155,5.63159 -5.12675,0.3635 -9.98753,-2.50012 -12.16951,-7.16942 -0.55048,-1.178 -0.93574,-2.53493 -1.09855,-3.86919 -0.10643,-0.87228 -0.044,-2.7501 0.1206,-3.62637 1.11768,-5.95052 6.26376,-10.24423 12.27791,-10.24423 4.2001,0 8.175,2.15653 10.46026,5.67507 l 0.34854,0.53663 5.04375,-2.92045 c 2.77406,-1.60625 5.19092,-3.00413 5.3708,-3.10642 l 0.32706,-0.18596 -0.40514,-0.65543 c -1.54837,-2.50497 -3.80272,-4.96858 -6.16596,-6.7383 -3.60725,-2.70131 -7.67595,-4.31804 -12.3011,-4.88794 -1.04072,-0.12823 -4.5476,-0.10769 -5.63671,0.033 -6.91265,0.89306 -12.9186,4.38891 -17.03469,9.9153 -1.38902,1.86494 -2.60803,4.12459 -3.39467,6.29262 -2.78375,7.67223 -1.649,16.17488 3.04607,22.82402 0.92918,1.31589 1.4165,1.88474 2.80515,3.27442 1.60082,1.60201 2.96706,2.67882 4.77901,3.76664 4.2603,2.55771 9.36336,3.80747 14.2213,3.48287 z m 20.647163,-22.10877 v -1.37025 h 1.4014 1.40139 v -1.37025 -1.37025 h -1.40139 -1.4014 v -1.37025 -1.37025 h -1.339103 -1.33911 v 1.37025 1.37025 h -1.40139 -1.40139 v 1.36906 1.36906 l 1.38581,0.0168 1.38583,0.0168 0.0168,1.35469 0.0168,1.35467 h 1.33789 1.337893 z m 10.401442,0 v -1.37025 h 1.370248 1.370251 v -1.37025 -1.37025 h -1.370251 -1.370248 v -1.37025 -1.37025 h -1.370249 -1.370251 v 1.37025 1.37025 h -1.370248 -1.370249 v 1.37025 1.37025 h 1.370249 1.370248 v 1.37025 1.37024 h 1.370251 1.370249 z"
       id="path1533" /></g></svg>
