<?xml version="1.0" encoding="UTF-8" standalone="no"?>
<!-- Created with Inkscape (http://www.inkscape.org/) -->

<svg
   width="83.657608mm"
   height="83.64946mm"
   viewBox="0 0 83.657608 83.64946"
   version="1.1"
   id="svg5"
   xml:space="preserve"
   inkscape:version="1.2.2 (b0a8486541, 2022-12-01)"
   sodipodi:docname="docker.svg"
   xmlns:inkscape="http://www.inkscape.org/namespaces/inkscape"
   xmlns:sodipodi="http://sodipodi.sourceforge.net/DTD/sodipodi-0.dtd"
   xmlns="http://www.w3.org/2000/svg"
   xmlns:svg="http://www.w3.org/2000/svg"><sodipodi:namedview
     id="namedview7"
     pagecolor="#ffffff"
     bordercolor="#000000"
     borderopacity="0.25"
     inkscape:showpageshadow="2"
     inkscape:pageopacity="0.0"
     inkscape:pagecheckerboard="0"
     inkscape:deskcolor="#d1d1d1"
     inkscape:document-units="mm"
     showgrid="false"
     inkscape:zoom="0.99902044"
     inkscape:cx="187.18336"
     inkscape:cy="28.527945"
     inkscape:window-width="1873"
     inkscape:window-height="1216"
     inkscape:window-x="0"
     inkscape:window-y="0"
     inkscape:window-maximized="1"
     inkscape:current-layer="layer1" /><defs
     id="defs2" /><g
     inkscape:label="Layer 1"
     inkscape:groupmode="layer"
     id="layer1"
     transform="translate(163.81233,-589.39364)"><path
       style="fill:#000000;stroke-width:1"
       d="m -139.02242,660.27924 c -0.27031,-0.0315 -1.19186,-0.13585 -2.04787,-0.23186 -3.55046,-0.39822 -7.41777,-1.38706 -9.96556,-2.54813 -7.51422,-3.42434 -12.04032,-12.00515 -12.73599,-24.14553 -0.13019,-2.27196 0.0293,-2.99173 0.83616,-3.77384 l 0.58563,-0.56766 28.94786,-0.0891 c 26.5243,-0.0816 29.0437,-0.11246 30.09257,-0.36819 1.59114,-0.38794 3.17352,-0.92891 3.29577,-1.12673 0.05641,-0.0913 -0.16519,-0.73648 -0.49243,-1.43383 -1.40288,-2.98948 -1.43674,-6.19445 -0.10421,-9.86208 0.53494,-1.47234 2.023265,-4.07646 2.329815,-4.07646 0.269556,0 1.246471,0.62303 2.411581,1.53799 2.031119,1.59504 3.787822,4.28863 4.392692,6.73542 0.155926,0.63074 0.291537,1.16515 0.301355,1.18757 0.0098,0.0224 0.825481,-0.0241 1.81258,-0.1035 3.415469,-0.27455 6.370428,0.2729 8.36707,1.55014 0.854482,0.5466 0.900964,0.61026 0.805228,1.10272 -0.201267,1.03532 -1.127168,2.612 -2.204638,3.75417 -2.385142,2.52838 -5.03002,3.69364 -9.035051,3.98063 l -1.556383,0.11152 -0.643109,1.58071 c -1.10564,2.71758 -3.334967,6.97468 -4.837614,9.23784 -6.748676,10.16432 -16.881366,16.00385 -30.195906,17.40207 -2.1597,0.2268 -8.85713,0.32127 -10.35955,0.14612 z m -17.50248,-33.26028 c -0.0601,-0.0601 -0.10922,-1.75311 -0.10922,-3.76232 0,-3.44404 0.0181,-3.6628 0.31689,-3.82269 0.40756,-0.21813 7.21157,-0.22671 7.78202,-0.01 l 0.42024,0.15977 v 3.57555 c 0,2.56253 -0.0557,3.63124 -0.19659,3.77213 -0.21298,0.21298 -8.00485,0.29587 -8.21334,0.0874 z m 10.24761,-0.0846 c -0.14444,-0.14444 -0.19938,-1.18464 -0.19938,-3.77492 v -3.57555 l 0.42024,-0.15977 c 0.64853,-0.24657 7.48004,-0.20712 7.8251,0.0452 0.2525,0.18464 0.27591,0.57044 0.2361,3.89096 l -0.0442,3.686 -4.01924,0.0438 c -2.98858,0.0325 -4.07037,-0.007 -4.21862,-0.15564 z m 10.31849,-0.003 c -0.2419,-0.24191 -0.27507,-6.96175 -0.0362,-7.33958 0.13121,-0.20755 0.78091,-0.24574 4.18112,-0.24574 3.40022,0 4.04993,0.0382 4.18113,0.24574 0.21411,0.3387 0.20583,6.81745 -0.009,7.21928 -0.16052,0.29994 -0.38231,0.31689 -4.1449,0.31689 -2.87346,0 -4.02979,-0.0545 -4.1719,-0.19659 z m 10.23391,0.0874 c -0.0601,-0.0601 -0.10923,-1.75311 -0.10923,-3.76232 0,-3.44404 0.0182,-3.6628 0.31689,-3.82269 0.40757,-0.21813 7.21157,-0.22671 7.78202,-0.01 l 0.42024,0.15978 v 3.57554 c 0,2.56254 -0.0557,3.63124 -0.19659,3.77214 -0.21297,0.21297 -8.00485,0.29587 -8.21333,0.0874 z m 10.32127,0 c -0.0601,-0.0601 -0.10922,-1.75311 -0.10922,-3.76232 0,-3.44404 0.0181,-3.6628 0.31689,-3.82269 0.40756,-0.21813 7.21157,-0.22671 7.78202,-0.01 l 0.42024,0.15978 v 3.57554 c 0,2.56254 -0.0557,3.63124 -0.19659,3.77214 -0.21298,0.21297 -8.00485,0.29587 -8.21334,0.0874 z m -30.89008,-9.61527 c -0.13379,-0.16122 -0.17648,-1.28139 -0.14527,-3.81186 l 0.0442,-3.58355 h 4.17767 4.17765 v 3.76808 3.76809 l -4.03239,0.0438 c -3.28734,0.0357 -4.0674,0.002 -4.22187,-0.18454 z m 10.3349,0.0261 c -0.2077,-0.2077 -0.29515,-6.7283 -0.0971,-7.24426 0.087,-0.22663 0.6071,-0.25915 4.1449,-0.25915 2.92802,0 4.09974,0.0543 4.24204,0.19659 0.27831,0.27832 0.27831,7.0285 0,7.30682 -0.2794,0.27939 -8.01039,0.27939 -8.28979,0 z m 10.19924,-0.009 c -0.0446,-0.11632 -0.0612,-1.83166 -0.0369,-3.81187 l 0.0443,-3.60038 h 4.17766 4.17766 v 3.76808 3.76809 l -4.14076,0.0438 c -3.26318,0.0345 -4.15796,-10e-4 -4.22192,-0.16771 z m 0,-9.50213 c -0.0446,-0.11632 -0.0612,-1.83166 -0.0369,-3.81186 l 0.0443,-3.60039 h 4.17766 4.17766 v 3.76809 3.76808 l -4.14076,0.0438 c -3.26318,0.0345 -4.15796,-10e-4 -4.22192,-0.1677 z"
       id="path1186" /></g></svg>
