<?xml version="1.0" encoding="UTF-8" standalone="no"?>
<!-- Created with Inkscape (http://www.inkscape.org/) -->

<svg
   width="90.021858mm"
   height="87.81147mm"
   viewBox="0 0 90.021858 87.81147"
   version="1.1"
   id="svg5"
   xml:space="preserve"
   inkscape:version="1.2.2 (b0a8486541, 2022-12-01)"
   sodipodi:docname="github.svg"
   xmlns:inkscape="http://www.inkscape.org/namespaces/inkscape"
   xmlns:sodipodi="http://sodipodi.sourceforge.net/DTD/sodipodi-0.dtd"
   xmlns="http://www.w3.org/2000/svg"
   xmlns:svg="http://www.w3.org/2000/svg"><sodipodi:namedview
     id="namedview7"
     pagecolor="#ffffff"
     bordercolor="#000000"
     borderopacity="0.25"
     inkscape:showpageshadow="2"
     inkscape:pageopacity="0.0"
     inkscape:pagecheckerboard="0"
     inkscape:deskcolor="#d1d1d1"
     inkscape:document-units="mm"
     showgrid="false"
     inkscape:zoom="1.2056908"
     inkscape:cx="262.09042"
     inkscape:cy="-73.401905"
     inkscape:window-width="1873"
     inkscape:window-height="1216"
     inkscape:window-x="0"
     inkscape:window-y="0"
     inkscape:window-maximized="1"
     inkscape:current-layer="layer1" /><defs
     id="defs2" /><g
     inkscape:label="Layer 1"
     inkscape:groupmode="layer"
     id="layer1"
     transform="translate(165.60041,-588.85153)"><path
       style="fill:#000000;stroke-width:0.999998"
       d="m -134.3203,676.65279 c -0.34027,-0.0331 -0.50808,-0.0713 -0.90128,-0.20503 -1.99125,-0.67739 -3.80349,-1.43547 -5.71342,-2.38998 -1.1398,-0.56962 -1.96682,-1.02307 -3.00857,-1.64959 -4.41156,-2.65313 -8.35568,-6.12877 -11.71224,-10.32105 -4.04287,-5.04947 -6.83396,-10.47133 -8.41595,-16.34844 -1.22853,-4.56399 -1.72673,-9.51767 -1.4577,-14.49394 0.40601,-7.50979 2.58031,-14.48765 6.50515,-20.87666 1.59152,-2.59075 3.29417,-4.84942 5.33878,-7.08226 0.52427,-0.57254 1.95521,-2.00317 2.53001,-2.52946 3.19676,-2.92698 6.70502,-5.34133 10.5608,-7.26781 5.24483,-2.62052 10.76961,-4.11814 16.70134,-4.52731 1.8601,-0.12831 3.99787,-0.1449 5.8606,-0.0455 7.49219,0.39989 14.36085,2.51866 20.768633,6.40649 2.155229,1.30766 4.277193,2.84564 6.11266,4.43042 0.903331,0.77995 1.485609,1.32308 2.413411,2.25115 0.934242,0.93451 1.485479,1.52563 2.250789,2.41364 3.25885,3.78135 5.969423,8.24987 7.806379,12.86918 2.329792,5.85865 3.357721,12.21301 3.048748,18.84643 -0.324204,6.96019 -2.13283,13.40541 -5.423808,19.32825 -2.706001,4.87003 -6.423593,9.41248 -10.581651,12.9295 -2.571662,2.17519 -5.318327,3.99816 -8.327261,5.52683 -1.95833,0.99491 -3.79329,1.77066 -5.92039,2.50291 -0.57216,0.19697 -0.78686,0.2362 -1.29957,0.23747 -0.86301,0.002 -1.3903,-0.25968 -1.81717,-0.90227 -0.16551,-0.24915 -0.25867,-0.47448 -0.34735,-0.84016 -0.0284,-0.11697 -0.0314,-0.61419 -0.0419,-6.91388 -0.0116,-6.93632 -0.0113,-6.91061 -0.0815,-7.67008 -0.18049,-1.95454 -0.6796,-3.57295 -1.51038,-4.89763 -0.31427,-0.5011 -0.67071,-0.94248 -1.12333,-1.39103 -0.17262,-0.17107 -0.31069,-0.31368 -0.30681,-0.31689 0.004,-0.003 0.10427,-0.0158 0.2231,-0.0279 0.35375,-0.0361 1.30134,-0.1577 1.76448,-0.22648 2.0235,-0.30052 3.83074,-0.7068 5.24843,-1.17987 2.0614,-0.68789 4.44472,-1.88833 6.041631,-3.04308 1.256316,-0.90846 2.403805,-2.01743 3.26878,-3.15906 1.788155,-2.36009 3.154434,-5.9848 3.678357,-9.7586 0.197467,-1.42236 0.289111,-2.69723 0.310619,-4.32117 0.01213,-0.9163 -0.006,-1.52564 -0.0666,-2.23856 -0.32906,-3.87059 -1.763333,-7.21239 -4.326169,-10.07983 l -0.228014,-0.25511 0.07884,-0.20401 c 0.770545,-1.9939 1.040999,-4.09473 0.820144,-6.37069 -0.156975,-1.61764 -0.601438,-3.40798 -1.276823,-5.14314 l -0.09218,-0.23682 -0.14772,-0.0399 c -0.947855,-0.25624 -2.255791,-0.10867 -3.909695,0.44112 -1.28832,0.42826 -3.3169,1.29977 -4.54728,1.95358 -0.89693,0.47662 -1.17882,0.64386 -2.65233,1.57352 -0.59229,0.37369 -1.08763,0.68356 -1.10074,0.68859 -0.0131,0.005 -0.1929,-0.0367 -0.39951,-0.0927 -3.45681,-0.93689 -7.11531,-1.41262 -10.8635,-1.41262 -3.72646,0 -7.27257,0.45716 -10.77118,1.3886 l -0.48138,0.12816 -0.51789,-0.34195 c -0.50605,-0.33413 -1.16375,-0.74877 -1.77823,-1.12104 -1.12596,-0.68216 -2.52929,-1.34556 -4.62725,-2.18748 -1.34761,-0.5408 -2.16964,-0.80522 -3.04937,-0.98088 -0.80657,-0.16105 -1.57562,-0.18659 -2.14854,-0.0714 -0.32319,0.065 -0.29231,0.0382 -0.41335,0.35892 -0.81225,2.15225 -1.24564,4.2521 -1.28763,6.23869 -0.0376,1.77841 0.25242,3.49063 0.86876,5.12916 l 0.11475,0.30505 -0.13915,0.15321 c -1.97022,2.16935 -3.2903,4.62999 -3.96308,7.3872 -0.25559,1.04745 -0.40517,2.04871 -0.49194,3.2928 -0.0298,0.42798 -0.0296,2.31229 4.5e-4,2.91679 0.17498,3.52477 0.72681,6.23071 1.83039,8.97544 1.17269,2.91664 2.6019,4.90061 4.79865,6.66128 1.00826,0.80812 2.1566,1.51417 3.66399,2.25279 1.75927,0.86204 3.25614,1.39587 5.09539,1.81719 1.48499,0.34016 3.13955,0.61546 4.77579,0.79464 0.16092,0.0176 0.29258,0.0374 0.29258,0.044 0,0.007 -0.0587,0.0669 -0.13053,0.13412 -1.40723,1.31731 -2.3389,3.28636 -2.68927,5.68366 l -0.0308,0.21098 -0.27165,0.12002 c -1.62641,0.71861 -3.28166,1.03313 -5.47505,1.04033 -0.66785,0.002 -0.82812,-0.008 -1.25134,-0.0809 -0.81304,-0.13972 -1.64166,-0.45797 -2.45767,-0.94394 -1.34963,-0.80375 -2.5051,-2.01309 -3.44853,-3.6093 -0.66635,-1.12742 -1.20979,-1.81437 -2.01632,-2.54881 -0.87386,-0.79576 -2.34718,-1.69008 -3.34854,-2.0326 -0.3206,-0.10967 -0.47314,-0.14148 -1.15231,-0.24031 l -0.60317,-0.0878 -0.35109,0.013 c -0.74924,0.0278 -1.22669,0.14714 -1.47242,0.36808 -0.16764,0.15072 -0.21221,0.33615 -0.13203,0.54931 0.14071,0.37411 0.59342,0.95614 1.03367,1.32897 0.24099,0.20408 0.65667,0.49283 0.85376,0.59305 0.80781,0.41076 1.62337,1.15715 2.42959,2.22355 0.71902,0.95106 1.21654,1.73507 1.59936,2.52032 0.19646,0.40299 0.72716,1.62019 0.83819,1.92244 0.51628,1.40544 1.36724,2.54944 2.56497,3.44821 1.21505,0.91178 2.48751,1.46937 3.9436,1.72809 1.83677,0.32636 3.56303,0.45338 5.2569,0.3868 0.94619,-0.0372 1.37822,-0.0859 2.52969,-0.28544 l 0.80121,-0.13883 0.0113,1.60322 c 0.006,0.88177 0.0163,2.12176 0.0224,2.75553 0.0324,3.38054 0.0347,4.19485 0.0124,4.35718 -0.0636,0.46189 -0.21626,0.81437 -0.50796,1.17304 -0.40232,0.49468 -0.89142,0.71444 -1.63573,0.73495 -0.14359,0.004 -0.33493,1e-5 -0.4252,-0.009 z"
       id="path903" /></g></svg>
