<?xml version="1.0" encoding="UTF-8" standalone="no"?>
<!-- Created with Inkscape (http://www.inkscape.org/) -->

<svg
   width="83.657608mm"
   height="83.64946mm"
   viewBox="0 0 83.657608 83.64946"
   version="1.1"
   id="svg5"
   xml:space="preserve"
   inkscape:version="1.2.2 (b0a8486541, 2022-12-01)"
   sodipodi:docname="javascript.svg"
   xmlns:inkscape="http://www.inkscape.org/namespaces/inkscape"
   xmlns:sodipodi="http://sodipodi.sourceforge.net/DTD/sodipodi-0.dtd"
   xmlns="http://www.w3.org/2000/svg"
   xmlns:svg="http://www.w3.org/2000/svg"><sodipodi:namedview
     id="namedview7"
     pagecolor="#ffffff"
     bordercolor="#000000"
     borderopacity="0.25"
     inkscape:showpageshadow="2"
     inkscape:pageopacity="0.0"
     inkscape:pagecheckerboard="0"
     inkscape:deskcolor="#d1d1d1"
     inkscape:document-units="mm"
     showgrid="false"
     inkscape:zoom="0.15489041"
     inkscape:cx="1000.7076"
     inkscape:cy="532.63467"
     inkscape:window-width="1873"
     inkscape:window-height="1190"
     inkscape:window-x="0"
     inkscape:window-y="0"
     inkscape:window-maximized="1"
     inkscape:current-layer="layer1"
     showguides="true" /><defs
     id="defs2"><path
       id="SVGID_1_"
       d="m147.49 30.14 51.21 29.61 51.08-27.24-52.39-25.78z" /></defs><g
     inkscape:label="Layer 1"
     inkscape:groupmode="layer"
     id="layer1"
     transform="translate(163.81233,-589.39364)"><path
       style="fill:#3e3e3e;fill-opacity:1;stroke-width:0.0757636"
       d="m -161.92642,631.21837 v -39.76064 h 39.94289 39.942898 v 39.76064 39.76063 h -39.942898 -39.94289 z m 34.54097,33.28938 c 4.29215,-0.6211 7.16132,-2.9882 8.28194,-6.83269 0.52686,-1.80754 0.48812,-0.61328 0.51572,-15.89291 l 0.0249,-13.81419 h -3.72066 -3.72066 l -0.0242,13.32285 c -0.0227,12.49864 -0.0327,13.35772 -0.16033,13.88663 -0.37769,1.56482 -1.18939,2.43338 -2.53797,2.71574 -0.61102,0.12793 -2.03785,0.1067 -2.52637,-0.0376 -1.26654,-0.37406 -2.16218,-1.20867 -3.20754,-2.98896 -0.21611,-0.36806 -0.4152,-0.66059 -0.44241,-0.65007 -0.0273,0.0108 -1.40205,0.83387 -3.05517,1.82968 l -3.0057,1.81057 0.33618,0.62906 c 2.22529,4.16403 6.25226,6.34565 11.39217,6.17172 0.58472,-0.0198 1.41725,-0.0872 1.85007,-0.14985 z m 28.79055,0.0397 c 2.255548,-0.26624 4.361819,-0.99497 6.009468,-2.07915 0.822766,-0.5414 2.215301,-1.96388 2.713588,-2.77194 0.530721,-0.86067 0.960139,-1.90947 1.210602,-2.95678 0.187068,-0.78218 0.200949,-0.95973 0.198805,-2.54171 -0.0024,-1.85191 -0.109007,-2.6068 -0.535918,-3.79719 -1.217288,-3.39463 -3.709154,-5.40673 -10.090135,-8.14744 -3.13857,-1.34806 -4.15467,-1.90159 -4.85105,-2.64268 -0.64407,-0.68543 -0.93594,-1.56097 -0.86374,-2.59105 0.0538,-0.76689 0.29126,-1.3331 0.77928,-1.8578 0.72454,-0.77901 1.55952,-1.1005 2.84724,-1.09627 0.91461,0.003 1.53078,0.13805 2.27263,0.49808 0.63834,0.30979 1.583795,1.23544 2.088452,2.04475 0.238327,0.38219 0.404163,0.57607 0.470937,0.55056 0.186718,-0.0714 5.684747,-3.60574 5.707712,-3.6692 0.05099,-0.14109 -1.237092,-1.91581 -1.885724,-2.59805 -1.260854,-1.32618 -2.756342,-2.25724 -4.439504,-2.76395 -2.708413,-0.81533 -6.078523,-0.77168 -8.628273,0.11176 -1.56572,0.54251 -2.76361,1.27721 -3.86797,2.37237 -1.8524,1.83695 -2.72805,4.04173 -2.72884,6.87088 -8.7e-4,3.09468 0.94383,5.49433 2.93857,7.46419 1.50876,1.48996 3.29235,2.53451 7.08483,4.14922 4.152012,1.76779 5.345101,2.52576 5.928242,3.76622 0.416991,0.88702 0.424949,2.05115 0.01987,2.90753 -0.447609,0.9463 -1.648728,1.80003 -2.964772,2.10731 -0.89921,0.20994 -2.93653,0.19213 -3.83946,-0.0336 -2.02557,-0.50633 -3.74197,-1.81705 -5.06306,-3.8664 -0.13615,-0.2112 -0.27573,-0.38401 -0.31017,-0.38401 -0.0783,0 -5.84819,3.31279 -5.97645,3.4314 -0.10756,0.0995 0.33567,0.8917 1.09593,1.95924 0.5948,0.8352 2.10475,2.32408 2.96652,2.92512 2.24479,1.56567 4.93897,2.48046 8.0044,2.71785 0.96062,0.0744 2.7258,0.0366 3.708,-0.0793 z"
       id="path2474" /></g><style
     id="style1741">.st0{fill-rule:evenodd;clip-rule:evenodd;fill:#6699cb}</style></svg>
