<?xml version="1.0" encoding="UTF-8" standalone="no"?>
<!-- Created with Inkscape (http://www.inkscape.org/) -->

<svg
   width="83.657608mm"
   height="83.64946mm"
   viewBox="0 0 83.657608 83.64946"
   version="1.1"
   id="svg5"
   xml:space="preserve"
   inkscape:version="1.2.2 (b0a8486541, 2022-12-01)"
   sodipodi:docname="jenkins.svg"
   xmlns:inkscape="http://www.inkscape.org/namespaces/inkscape"
   xmlns:sodipodi="http://sodipodi.sourceforge.net/DTD/sodipodi-0.dtd"
   xmlns="http://www.w3.org/2000/svg"
   xmlns:svg="http://www.w3.org/2000/svg"><sodipodi:namedview
     id="namedview7"
     pagecolor="#ffffff"
     bordercolor="#000000"
     borderopacity="0.25"
     inkscape:showpageshadow="2"
     inkscape:pageopacity="0.0"
     inkscape:pagecheckerboard="0"
     inkscape:deskcolor="#d1d1d1"
     inkscape:document-units="mm"
     showgrid="false"
     inkscape:zoom="0.99902044"
     inkscape:cx="187.18336"
     inkscape:cy="28.527945"
     inkscape:window-width="1873"
     inkscape:window-height="1216"
     inkscape:window-x="0"
     inkscape:window-y="0"
     inkscape:window-maximized="1"
     inkscape:current-layer="layer1" /><defs
     id="defs2" /><g
     inkscape:label="Layer 1"
     inkscape:groupmode="layer"
     id="layer1"
     transform="translate(163.81233,-589.39364)"><path
       style="fill:#000000;stroke-width:1"
       d="m -120.65415,672.96773 c -2.2648,-0.12872 -5.16786,-0.65135 -5.47907,-0.98637 -0.25436,-0.27382 -0.54336,-1.11566 -1.78932,-5.21213 l -1.02212,-3.36052 -1.45964,-0.10955 c -1.84017,-0.13809 -3.18055,-0.55485 -5.96766,-1.85547 -1.21717,-0.56798 -2.77611,-1.28997 -3.46432,-1.60441 -1.53031,-0.69919 -1.54863,-0.74279 -1.7038,-4.05322 l -0.1114,-2.37696 -1.54063,-1.52909 c -3.62507,-3.59792 -6.30916,-8.10661 -7.82392,-13.14247 -1.00296,-3.33431 -1.17564,-4.68032 -1.16719,-9.09799 0.007,-3.63801 0.041,-4.09174 0.45181,-6.02533 1.38996,-6.54183 4.5905,-12.33089 9.19417,-16.6302 1.19128,-1.11254 1.21857,-1.15598 1.3246,-2.10856 0.25918,-2.3285 1.16846,-4.28735 2.35451,-5.07224 0.50692,-0.33545 0.7229,-0.63839 1.00318,-1.40711 0.67712,-1.85705 2.39686,-3.35386 6.4828,-5.64245 4.77147,-2.67257 8.94082,-3.7004 13.62983,-3.36003 4.7902,0.34772 7.43666,1.43956 10.51018,4.33617 3.63398,3.4248 5.09371,6.38812 5.64265,11.45482 l 0.19857,1.83286 1.05475,1.1475 c 5.730894,6.23476 8.552622,13.36453 8.552622,21.61021 0,5.05704 -1.046445,9.59547 -3.216049,13.948 l -0.89178,1.78903 0.5842,0.48156 c 0.718879,0.59256 1.184825,1.49302 1.97495,3.8167 1.008431,2.96565 0.9664,5.25038 -0.134943,7.33641 -0.648431,1.22817 -1.209207,1.68451 -2.364877,1.92442 -1.13522,0.23567 -4.732403,0.14052 -5.243313,-0.1387 -0.19676,-0.10753 -0.40765,-0.35275 -0.46864,-0.54493 -0.10523,-0.33147 -0.18795,-0.34518 -1.6094,-0.26647 -1.83892,0.10185 -2.89189,0.47733 -2.89189,1.03127 0,0.38699 -0.6834,1.05963 -1.07658,1.05963 -0.51552,0 -0.48113,1.27642 0.10599,3.93427 0.69586,3.15019 0.29676,4.0203 -2.10269,4.58424 l -0.86025,0.2022 0.10174,1.09471 c 0.0946,1.01815 0.0715,1.13064 -0.33047,1.60838 -0.58395,0.69397 -1.60062,1.00817 -3.86443,1.19428 -2.87211,0.23612 -4.31658,0.2663 -6.58217,0.13754 z m 7.00572,-1.85893 c 1.62513,-0.27955 2.52137,-0.53398 2.52137,-0.71576 0,-0.0667 -0.0749,-0.52634 -0.16647,-1.02164 -0.0916,-0.49529 -0.27495,-3.03538 -0.40753,-5.64464 -0.3366,-6.62429 -0.71697,-12.69544 -0.82785,-13.21369 -0.0514,-0.24041 -0.19875,-0.47749 -0.32737,-0.52683 -0.12862,-0.0494 -1.34198,-0.18092 -2.69638,-0.29237 -1.95803,-0.1611 -3.07509,-0.16089 -5.45263,0.001 -2.9571,0.20143 -8.06301,0.86389 -8.27243,1.0733 -0.27394,0.27396 0.82418,7.65256 1.77571,11.93156 0.27634,1.24265 0.84654,3.45507 1.2671,4.91649 l 0.76468,2.65713 1.2292,0.30955 c 3.12089,0.78593 7.74579,1.01552 10.5926,0.52583 z m 4.94677,-4.08381 0.60727,-0.2137 -0.0461,-0.96361 c -0.0478,-0.99957 -0.63973,-4.47186 -0.86644,-5.08237 -0.12353,-0.33266 -0.1725,-0.33965 -1.08379,-0.15473 l -0.9544,0.19368 0.0395,2.12186 c 0.0217,1.16702 0.084,2.66401 0.13845,3.32663 l 0.099,1.20477 0.72962,-0.10942 c 0.40129,-0.0602 1.00289,-0.20557 1.33689,-0.32311 z m -20.10649,-5.99324 c -0.0323,-0.31556 -0.33157,-2.74771 -0.66491,-5.40478 l -0.60608,-4.83104 -0.56454,-0.12194 c -0.3105,-0.0671 -1.12587,-0.0779 -1.81194,-0.0242 -1.69317,0.13271 -1.93094,-0.27407 -0.4407,-0.75393 0.76297,-0.24567 0.9181,-0.67737 0.46971,-1.30709 -0.30537,-0.42886 -0.44006,-0.8352 -0.27683,-0.8352 0.0341,0 0.49456,0.26042 1.02313,0.5787 0.85843,0.51691 0.9816,0.55056 1.15372,0.31517 0.4147,-0.56714 0.45856,-2.52965 0.12317,-5.51291 -0.10111,-0.89895 0.18846,-2.15361 0.4748,-2.05758 0.14432,0.0484 0.19575,1.08226 0.19575,3.93541 0,2.67817 0.0575,3.92773 0.18693,4.05799 0.14069,0.14163 0.97237,0.10418 3.36053,-0.15136 3.64379,-0.38987 7.24949,-0.66685 8.91106,-0.68449 0.63112,-0.006 1.29503,-0.0734 1.47535,-0.14822 0.27914,-0.11581 0.19389,-0.19234 -0.57375,-0.51506 -1.4084,-0.59212 -5.09579,-2.42816 -5.60561,-2.79119 -0.55796,-0.3973 -0.60127,-0.99537 -0.12301,-1.69841 0.184,-0.27048 0.44845,-0.70403 0.58766,-0.96345 l 0.25312,-0.47167 -0.74643,0.11194 c -0.99129,0.14865 -1.36031,-0.0748 -1.83105,-1.10883 -0.39603,-0.86991 -1.27879,-3.80333 -1.47832,-4.91246 -0.10905,-0.60621 -0.16676,-0.65081 -2.08859,-1.6142 -2.92468,-1.46609 -3.84599,-2.1035 -4.93961,-3.41745 -0.53484,-0.6426 -1.1145,-1.24439 -1.28813,-1.33731 -0.64182,-0.34349 -4.98204,2.0692 -8.71179,4.84281 -1.0428,0.77548 -1.89599,1.48329 -1.89599,1.57293 0,0.0897 0.24904,0.77243 0.55341,1.5173 1.75341,4.29097 2.87389,9.29017 3.46003,15.43749 0.13677,1.4345 0.24869,3.10034 0.24869,3.70185 v 1.09366 l 2.93416,1.49051 c 3.58864,1.82295 6.18456,2.68998 7.80312,2.6062 0.46015,-0.0239 0.48799,-0.0623 0.43294,-0.59921 z m 19.33786,-1.906 c 1.12808,-0.20638 1.45741,-0.3269 1.45585,-0.53277 -0.005,-0.65134 -0.50782,-5.96338 -0.67391,-7.11841 -0.21488,-1.49443 -0.43707,-1.79838 -1.22535,-1.67629 -0.30671,0.0475 -0.81583,0.1266 -1.13139,0.17576 l -0.57375,0.0895 v 1.63818 c 0,1.77513 0.29483,7.15264 0.41043,7.48594 0.0882,0.25415 -0.007,0.25755 1.73812,-0.0619 z m 13.529063,-1.38776 c 0.49859,-0.2475 0.97873,-0.65951 1.287847,-1.10512 0.43889,-0.63267 0.498906,-0.86612 0.5479,-2.13107 0.04356,-1.12325 -0.03455,-1.77319 -0.372865,-3.10544 -0.665542,-2.6207 -1.004082,-3.39185 -1.782532,-4.0605 -0.61489,-0.52816 -0.76326,-0.58201 -1.42408,-0.51688 -0.40572,0.0399 -1.40158,0.34456 -2.21303,0.67682 -0.811433,0.33228 -1.937703,0.79325 -2.502813,1.02439 -0.56511,0.23115 -1.20388,0.55903 -1.41948,0.72862 -0.38247,0.30085 -0.38649,0.32931 -0.16466,1.16879 0.12505,0.47324 0.34288,1.89318 0.48405,3.15543 0.14119,1.26224 0.29306,2.53129 0.33749,2.8201 l 0.0808,0.52513 2.75585,-0.099 c 3.028283,-0.10878 3.792033,0.0796 1.775273,0.43796 -1.3786,0.24495 -1.920263,0.42656 -1.920263,0.64384 0,0.26261 0.506433,0.32816 2.154653,0.27886 1.27747,-0.0383 1.73346,-0.12302 2.37586,-0.4419 z m -4.612473,-3.74784 c -0.76344,-0.0979 -0.78756,-0.11451 -0.35181,-0.24217 0.5696,-0.1669 2.982133,-0.0249 3.548413,0.20885 0.32438,0.13389 0.11933,0.16596 -0.98357,0.15381 -0.76637,-0.008 -1.762233,-0.0626 -2.213033,-0.12049 z m -0.60897,-2.16871 c 0.25328,-0.25328 1.942793,-0.3717 2.940053,-0.20607 l 0.78355,0.13014 -0.73767,0.12294 c -0.40572,0.0676 -1.28724,0.12843 -1.958943,0.13512 -0.94135,0.01 -1.17673,-0.0324 -1.02699,-0.18213 z m -0.50486,-1.44097 c 0.29525,-0.26866 1.00305,-0.62565 1.61557,-0.81483 1.258083,-0.38858 1.843683,-0.44657 1.219503,-0.12076 -0.22539,0.11764 -0.89639,0.48604 -1.491103,0.81862 -0.59471,0.33259 -1.25861,0.60255 -1.47535,0.59991 -0.38686,-0.005 -0.38447,-0.0136 0.13138,-0.48294 z m -3.00198,6.8905 0.47416,-0.18313 -0.0933,-2.08526 c -0.0908,-2.03147 -0.43462,-3.79418 -0.9503,-4.87204 -0.20735,-0.43341 -0.33025,-0.49783 -1.0355,-0.54269 -0.44013,-0.028 -0.86368,0.0125 -0.94121,0.0901 -0.11582,0.11581 0.72189,6.95514 0.94647,7.72739 0.072,0.24759 0.76036,0.18978 1.59957,-0.13436 z m -37.33884,-7.75916 c -0.16269,-1.79535 -0.8286,-4.78221 -1.41532,-6.34821 -1.45155,-3.8743 -2.27575,-6.26203 -2.4481,-7.09225 -0.26564,-1.27957 -0.0133,-1.71491 1.50899,-2.60332 0.65329,-0.38127 1.77795,-1.07294 2.49923,-1.53704 0.72128,-0.46411 2.4917,-1.52661 3.93428,-2.36111 1.44256,-0.83451 2.78882,-1.67101 2.99168,-1.8589 0.54693,-0.50656 0.45967,-1.06932 -0.43614,-2.81292 -0.44275,-0.86174 -0.85385,-1.88098 -0.91358,-2.26496 -0.17928,-1.15255 -0.24346,-1.25775 -0.87319,-1.43119 -0.97999,-0.26989 -2.25226,-1.08883 -2.8781,-1.8526 -1.97487,-2.41007 -2.63076,-6.51059 -1.41898,-8.87139 0.48256,-0.94013 0.66129,-2.10924 0.35172,-2.30057 -0.19508,-0.12057 -2.50401,2.31571 -3.67107,3.87355 -2.64289,3.52785 -4.57383,7.9384 -5.36782,12.26099 -0.4015,2.1858 -0.55477,6.32553 -0.31863,8.60621 0.1994,1.92592 0.715,4.33785 1.32666,6.20605 0.68611,2.09567 2.72774,6.14335 3.96098,7.85297 1.01553,1.40782 2.99518,3.72717 3.18127,3.72717 0.0518,0 0.0456,-0.53662 -0.0139,-1.19248 z m 33.91396,-1.59027 c 2.03881,-0.14947 2.53688,-0.29705 2.90653,-0.86121 0.38197,-0.58297 1.95655,-4.64671 2.74845,-7.09333 0.85563,-2.64352 1.47199,-5.31351 1.47586,-6.39318 l 0.003,-0.81965 -1.51779,-1.44537 c -0.83477,-0.79496 -2.07323,-1.94997 -2.75212,-2.5667 l -1.23434,-1.12131 -0.85574,0.73726 c -0.47066,0.4055 -0.85575,0.78607 -0.85575,0.84573 0,0.0597 0.32979,0.28341 0.73285,0.49724 0.51712,0.27433 0.83004,0.58958 1.06308,1.07098 0.69377,1.43313 0.86907,4.04514 0.39747,5.92255 -0.28794,1.14631 -0.32671,0.98565 0.51823,2.14778 0.29121,0.40055 0.41105,0.17162 -3.08959,5.90207 -1.05436,1.72596 -1.91702,3.22766 -1.91702,3.33708 0,0.12339 0.10897,0.15591 0.28687,0.0856 0.15778,-0.0623 1.09832,-0.17284 2.09008,-0.24555 z m -4.76344,-1.02858 c -0.24497,-0.79544 -2.08266,-4.81357 -2.63457,-5.76049 -0.74701,-1.28166 -1.34149,-2.06707 -1.56456,-2.06707 -0.31843,0 -2.16964,1.41844 -2.973,2.27797 -0.79599,0.85165 -1.34386,1.85866 -1.20628,2.2172 0.17676,0.4606 7.31648,3.68116 8.19408,3.69614 0.23397,0.004 0.27355,-0.0741 0.18433,-0.36375 z m 10.43686,-0.18926 c 1.22618,-0.56482 3.021203,-1.14273 4.091843,-1.31738 0.51927,-0.0847 0.6546,-0.22006 1.19972,-1.20008 1.46123,-2.62695 2.687391,-6.10598 3.238916,-9.18991 0.384077,-2.14761 0.522157,-6.29579 0.281352,-8.45245 -0.518808,-4.64654 -2.210578,-9.36499 -4.708848,-13.1332 -1.23874,-1.86841 -2.777473,-3.7275 -2.981063,-3.60168 -0.086,0.0531 -0.15625,0.60481 -0.15625,1.226 0,2.50492 -0.8506,7.26209 -1.80146,10.07512 -0.26518,0.78452 -0.81666,2.04006 -1.22552,2.7901 -1.18303,2.1703 -1.2019,2.12698 2.24569,5.15769 2.612793,2.29686 2.835833,2.59647 2.812863,3.77822 -0.0182,0.93721 -1.323943,5.31655 -3.332793,11.17805 -0.92791,2.70751 -1.08339,3.24762 -0.93489,3.24762 0.0324,0 0.60408,-0.25114 1.27044,-0.5581 z m -7.00869,-1.45002 c 0.67159,-1.0143 1.71741,-2.70928 2.32402,-3.76662 1.06224,-1.85147 1.09339,-1.93701 0.84412,-2.31743 -0.45433,-0.6934 -1.40025,-1.15805 -2.35751,-1.15805 -0.47524,0 -0.93498,0.0711 -1.02166,0.15807 -0.0867,0.0869 -0.23918,1.15394 -0.33886,2.3711 -0.19236,2.34865 -0.53976,4.79005 -0.81626,5.7364 -0.39838,1.36352 -0.0332,1.08992 1.36615,-1.02347 z m -1.74716,0.51939 c 0.19723,-0.88548 0.48607,-4.07046 0.57609,-6.35264 l 0.0474,-1.2023 -0.59258,-0.20514 c -0.32593,-0.11284 -0.82724,-0.37223 -1.11402,-0.57644 -0.42346,-0.30153 -0.65091,-0.35181 -1.21062,-0.26761 -0.37906,0.057 -1.00604,0.14591 -1.39331,0.19752 -0.49594,0.0661 -0.77977,0.20931 -0.96,0.48437 -0.2428,0.37056 -0.22504,0.43696 0.34742,1.2994 0.55631,0.83812 1.16243,2.05361 3.04557,6.10742 0.38842,0.83617 0.78496,1.49406 0.8812,1.46198 0.0962,-0.0321 0.264,-0.45803 0.37282,-0.94656 z m -1.30938,-3.03969 c -0.17221,-0.17221 -0.14082,-0.68272 0.0492,-0.80015 0.33007,-0.20399 0.83922,0.0974 0.78675,0.4658 -0.05,0.351 -0.5995,0.57079 -0.83594,0.33435 z m -0.60043,-2.92118 c -0.29757,-0.35857 -0.0854,-0.78064 0.36054,-0.71731 0.27031,0.0384 0.36957,0.16195 0.36957,0.46005 0,0.4783 -0.42297,0.62733 -0.73011,0.25726 z m -7.46694,0.29531 c 1.16308,-0.46883 1.9118,-0.94515 3.38691,-2.15471 1.61443,-1.32381 1.64891,-2.1314 0.10679,-2.50134 l -0.85788,-0.20581 0.69573,-0.20543 c 0.92452,-0.27298 1.24027,-0.5371 0.99515,-0.83244 -0.10227,-0.12328 -0.28834,-0.22414 -0.4134,-0.22414 -0.12506,0 -0.85063,-0.33699 -1.61239,-0.74887 -1.5431,-0.83434 -3.95036,-1.71005 -4.70078,-1.71005 -1.27599,0 -1.69333,0.96416 -1.57707,3.64349 0.0696,1.60559 0.15882,2.06147 0.67946,3.47415 0.3296,0.89435 0.68435,1.72858 0.78832,1.85386 0.24343,0.29331 1.17536,0.14894 2.50916,-0.38871 z m 13.64908,-3.06985 c 0.5144,-1.12898 0.3415,-3.82488 -0.33256,-5.18509 -0.32209,-0.64997 -0.43672,-0.74361 -0.96416,-0.7876 -0.76416,-0.0637 -1.46089,0.23216 -3.16981,1.34609 l -1.37468,0.89607 0.18955,0.50218 c 0.16743,0.44356 0.26669,0.5031 0.85031,0.51005 l 0.66075,0.007 -0.57375,0.28054 c -0.55155,0.26968 -0.57375,0.31522 -0.57375,1.17683 v 0.89629 l 0.9424,0.20908 c 0.77052,0.17094 2.4601,0.3933 3.90815,0.51435 0.14331,0.012 0.34021,-0.15301 0.43755,-0.36666 z m -6.756,-0.99748 c 0.67698,-0.67698 0.48151,-1.90992 -0.35311,-2.22724 -0.28993,-0.11024 -0.57569,-0.0848 -0.98924,0.088 l -0.58154,0.24299 0.11647,0.86245 c 0.0641,0.47436 0.18434,0.99154 0.2673,1.14934 0.22545,0.42883 1.05825,0.36638 1.54012,-0.11551 z m -11.98259,-2.53474 c 0.0511,-0.0827 0.13855,-0.48331 0.19434,-0.89028 l 0.10142,-0.73996 -0.5535,-0.0792 c -0.30442,-0.0434 -1.10676,-0.15684 -1.78295,-0.25183 -0.67621,-0.095 -1.43233,-0.22062 -1.68027,-0.27917 -0.37359,-0.0883 -0.4508,-0.0519 -0.4508,0.21194 0,0.59622 1.07539,1.31791 2.78677,1.87017 1.05036,0.33894 1.2586,0.36274 1.38499,0.15824 z m 12.81252,-1.33912 c 1.08307,-0.86183 1.31872,-1.23589 0.67895,-1.07778 -2.27743,0.56289 -3.99614,0.79573 -4.69425,0.63597 -0.84937,-0.19435 -1.1113,-0.11891 -0.81723,0.23542 0.4599,0.55415 1.77888,0.9939 3.0703,1.02367 0.62399,0.0144 0.84709,-0.0891 1.76223,-0.81728 z m -11.72899,-1.49426 c 0.36387,-0.26902 0.80588,-0.38377 1.7365,-0.4508 l 1.24839,-0.0899 -0.92456,-0.63543 c -1.02658,-0.70555 -3.416,-3.14148 -4.20179,-4.28359 -0.56234,-0.81732 -1.13754,-2.00476 -1.1431,-2.3598 -0.002,-0.12645 0.47545,0.4052 1.06096,1.18144 1.60851,2.1325 2.93975,3.47399 4.41004,4.44403 3.60465,2.37821 6.47973,2.66242 10.28597,1.01683 2.82229,-1.22019 3.87724,-2.08031 5.41121,-4.41186 2.29262,-3.48461 3.41892,-6.55836 3.99854,-10.91225 0.41971,-3.15273 0.2366,-8.9397 -0.34733,-10.97716 -0.62588,-2.18376 -3.49689,-3.7904 -5.19261,-2.90582 -0.38222,0.19937 -0.45081,0.2004 -0.45081,0.006 0,-0.9389 1.17238,-1.77271 2.38746,-1.69799 0.39408,0.0242 0.75396,0.006 0.79971,-0.0392 0.1295,-0.1295 -1.92192,-2.65211 -3.06292,-3.76643 -2.6499,-2.58796 -9.02048,-4.33261 -12.88115,-3.52763 -3.15152,0.65711 -8.81956,4.60321 -10.0295,6.98255 -0.33314,0.65511 -0.35372,0.81324 -0.18696,1.43672 0.29403,1.09934 0.21493,2.89482 -0.22565,5.12193 -0.48629,2.45826 -0.50792,3.74463 -0.0923,5.49159 0.30124,1.26628 0.39777,1.8956 0.35959,2.34435 -0.0258,0.30328 -1.03817,0.68832 -1.80977,0.68832 -0.63184,0 -0.66112,-0.0243 -0.83987,-0.69669 -0.27827,-1.04677 -0.93729,-2.16109 -1.46107,-2.4705 -0.28254,-0.1669 -0.81706,-0.2753 -1.35755,-0.2753 -2.38865,0 -4.0558,2.26096 -3.57699,4.85108 0.37838,2.04685 1.48051,3.73343 2.89047,4.42325 1.11482,0.54544 1.86085,0.48295 2.85799,-0.23938 0.38775,-0.28088 0.80457,-0.51069 0.92629,-0.51069 0.41706,0 0.22151,0.76037 -0.37466,1.45686 -0.57233,0.66864 -0.59208,0.73315 -0.49846,1.62781 0.18484,1.76625 1.56546,5.29893 2.73555,6.99959 0.86148,1.25212 2.42074,2.04617 4.66624,2.37624 1.61472,0.23736 2.36184,0.1858 2.88219,-0.19891 z m 8.35362,-5.35859 c -0.94925,-0.33935 -1.51493,-0.86345 -3.00121,-2.78061 -0.67247,-0.86739 -0.74463,-1.02855 -0.50226,-1.12156 0.18426,-0.0707 0.34392,-0.004 0.45745,0.19182 0.68732,1.18411 1.97847,2.06242 3.51682,2.39235 0.44473,0.0954 1.9756,0.22403 3.40193,0.2859 l 2.59333,0.11247 -0.39791,0.37003 c -0.57068,0.53066 -1.32077,0.70769 -3.36623,0.79443 -1.50825,0.064 -1.95021,0.024 -2.70192,-0.24483 z m 2.53415,-3.12727 c -1.24438,-0.18806 -2.70585,-0.64205 -3.43865,-1.06821 -0.66562,-0.38708 -1.50621,-1.17666 -1.38036,-1.29657 0.0379,-0.0361 0.6222,0.0771 1.2984,0.25172 0.80653,0.20823 2.08852,0.3521 3.72668,0.41821 l 2.49722,0.10079 0.0998,0.53206 c 0.1908,1.017 0.0886,1.13602 -0.99769,1.1625 -0.54006,0.0131 -1.35249,-0.0321 -1.80542,-0.10047 z m 3.72464,-0.85001 0.0496,-0.84463 1.06553,-0.29062 c 0.58604,-0.15984 1.711,-0.62734 2.4999,-1.03888 0.78891,-0.41155 1.43437,-0.68336 1.43437,-0.60403 0,0.35168 -1.52195,2.16374 -2.2217,2.64518 -0.75785,0.52143 -1.95563,0.97761 -2.56683,0.97761 -0.27079,0 -0.30406,-0.1077 -0.26082,-0.84463 z m -4.5051,-2.58217 c -0.2769,-0.46876 -0.39425,-1.97909 -0.1711,-2.20224 0.0606,-0.0606 0.22655,0.24051 0.36884,0.66907 0.18981,0.57166 0.38877,0.84102 0.74703,1.01134 0.73693,0.35033 2.35467,0.01 4.46921,-0.94092 1.57108,-0.70632 1.78299,-0.85162 1.94199,-1.33157 0.0981,-0.2963 0.14676,-0.70455 0.10803,-0.90722 -0.0388,-0.20268 -0.84219,-1.31891 -1.78541,-2.48051 -2.05848,-2.53507 -2.98977,-4.26055 -3.12915,-5.79774 -0.10481,-1.15575 0.12052,-1.25755 0.45433,-0.20527 0.44297,1.39641 2.54175,4.3333 4.78225,6.69196 l 1.16293,1.22426 -0.22192,0.9381 c -0.28062,1.18628 -0.7002,1.5906 -2.65979,2.56313 -1.65554,0.82162 -3.25909,1.23643 -4.79679,1.24086 -0.91936,0.002 -1.00906,-0.0308 -1.27045,-0.47325 z m -23.37678,-2.93217 c -0.16152,-0.3829 -0.20248,-0.94204 -0.14109,-1.92614 0.0838,-1.34366 0.0753,-1.38664 -0.27237,-1.38664 -0.1974,0 -0.45585,0.0922 -0.57435,0.20491 -0.13281,0.12632 -0.10977,-0.004 0.0601,-0.34077 0.16618,-0.32913 0.49888,-0.639 0.83837,-0.78085 0.4951,-0.20686 0.6366,-0.20437 1.17536,0.0208 0.33686,0.14076 0.77762,0.41105 0.97944,0.60064 0.49026,0.46059 0.90445,1.58751 0.83704,2.27742 l -0.0546,0.5588 -0.43672,-0.82993 c -0.54226,-1.03051 -0.83683,-1.28414 -1.3437,-1.15693 -0.517,0.12977 -0.62434,0.41728 -0.74174,1.98686 -0.0973,1.30091 -0.0999,1.3071 -0.3257,0.7719 z m 18.66949,-4.89109 c -1.50873,-0.23974 -2.1044,-0.68164 -1.87844,-1.39358 0.0795,-0.25057 0.19711,-0.31134 0.45988,-0.23767 0.19417,0.0545 0.90629,0.14195 1.5825,0.19449 0.91084,0.0707 1.30633,0.0371 1.52607,-0.12991 0.28102,-0.21354 0.26088,-0.29988 -0.38256,-1.64085 -0.37354,-0.7785 -0.7136,-1.73526 -0.75566,-2.12614 l -0.0765,-0.71068 0.45905,1.02251 c 0.25247,0.56239 0.85111,1.51573 1.33029,2.11856 0.89322,1.1237 0.98694,1.54458 0.47991,2.1555 -0.4356,0.52488 -1.80288,0.8974 -2.74455,0.74777 z m 12.1206,-1.21854 c -0.6271,-0.62711 -0.36899,-0.8738 1.11526,-1.0659 0.74101,-0.0959 1.3914,-0.21847 1.44532,-0.27239 0.0539,-0.0539 -0.0922,-0.62532 -0.32462,-1.26979 -0.23248,-0.64444 -0.41885,-1.40708 -0.41418,-1.69473 0.007,-0.43784 0.16889,-0.20658 0.99349,1.42028 0.96085,1.89564 0.97771,1.95145 0.68819,2.27717 -0.7976,0.89731 -2.85586,1.25295 -3.50346,0.60536 z m -19.06021,-5.67276 c -0.21683,-0.21683 -0.0986,-0.97232 0.27803,-1.77589 0.75552,-1.61217 2.94265,-3.17363 4.167,-2.97494 0.70376,0.1142 1.3471,0.68743 1.3471,1.2003 0,0.36169 -0.0572,0.38125 -1.11531,0.38125 -1.85881,0 -3.30271,0.9867 -4.14313,2.83122 -0.20663,0.45351 -0.33617,0.53557 -0.53369,0.33806 z m -6.33829,7.64947 c 0.13242,-0.2474 0.0935,-0.67486 -0.15815,-1.73418 -0.36,-1.51578 -0.42325,-2.99261 -0.18276,-4.2673 0.50195,-2.66062 0.5187,-5.68836 0.0341,-6.17293 -0.2376,-0.2376 -2.28331,0.26727 -3.41503,0.84282 -1.31035,0.66639 -2.2758,1.54243 -2.79851,2.53934 -0.41578,0.79299 -0.44502,0.9945 -0.50003,3.44605 l -0.0584,2.6038 0.38363,-0.0952 c 0.21101,-0.0524 0.72334,-0.18282 1.13852,-0.29 2.00783,-0.51832 4.37162,0.91069 4.67824,2.8282 0.11363,0.71061 0.57425,0.8676 0.87837,0.29934 z m -2.92458,-12.94769 c 0.57153,-0.17917 1.46816,-0.3267 1.99252,-0.32786 0.52434,-10e-4 1.08776,-0.0741 1.25203,-0.16196 0.16428,-0.088 0.6767,-0.74915 1.13872,-1.4694 0.832,-1.29701 2.71139,-3.13332 3.44522,-3.36623 0.38139,-0.12105 0.46306,-0.66029 0.11994,-0.79196 -0.28933,-0.11103 -2.31109,0.57372 -3.59934,1.21908 -2.34353,1.174 -4.59802,3.04632 -5.49308,4.56192 -0.46604,0.78915 -0.38055,0.81429 1.14399,0.33641 z"
       id="path1268" /></g></svg>
