<?xml version="1.0" encoding="UTF-8" standalone="no"?>
<!-- Created with Inkscape (http://www.inkscape.org/) -->

<svg
   width="83.657608mm"
   height="83.64946mm"
   viewBox="0 0 83.657608 83.64946"
   version="1.1"
   id="svg5"
   xml:space="preserve"
   inkscape:version="1.2.2 (b0a8486541, 2022-12-01)"
   sodipodi:docname="neovim.svg"
   xmlns:inkscape="http://www.inkscape.org/namespaces/inkscape"
   xmlns:sodipodi="http://sodipodi.sourceforge.net/DTD/sodipodi-0.dtd"
   xmlns="http://www.w3.org/2000/svg"
   xmlns:svg="http://www.w3.org/2000/svg"><sodipodi:namedview
     id="namedview7"
     pagecolor="#ffffff"
     bordercolor="#000000"
     borderopacity="0.25"
     inkscape:showpageshadow="2"
     inkscape:pageopacity="0.0"
     inkscape:pagecheckerboard="0"
     inkscape:deskcolor="#d1d1d1"
     inkscape:document-units="mm"
     showgrid="false"
     inkscape:zoom="0.070513111"
     inkscape:cx="-1262.1766"
     inkscape:cy="701.99711"
     inkscape:window-width="1873"
     inkscape:window-height="1190"
     inkscape:window-x="0"
     inkscape:window-y="0"
     inkscape:window-maximized="1"
     inkscape:current-layer="layer1"
     showguides="true" /><defs
     id="defs2"><path
       id="SVGID_1_"
       d="m147.49 30.14 51.21 29.61 51.08-27.24-52.39-25.78z" /></defs><g
     inkscape:label="Layer 1"
     inkscape:groupmode="layer"
     id="layer1"
     transform="translate(163.81233,-589.39364)"><path
       style="fill:#000000;fill-opacity:1;stroke:none;stroke-width:0.571683;stroke-linejoin:bevel;stroke-dasharray:none;stroke-opacity:1;stop-color:#000000"
       d="m -121.93815,672.35411 -0.28498,-0.18866 h 0.57091"
       id="path2551"
       sodipodi:nodetypes="ccc" /><path
       style="fill:#535353;fill-opacity:1;stroke-width:0.0571269"
       d="m -147.42541,663.93071 -8.84037,-8.82356 0.001,-23.83392 0.001,-23.8339 1.47909,-1.51386 c 1.30301,-1.33364 1.48892,-1.50366 1.56164,-1.42817 0.0454,0.0471 1.08017,1.5767 2.29951,3.39905 1.21932,1.82234 2.73529,4.08456 3.36882,5.02715 1.78479,2.65549 3.76503,5.60673 5.94137,8.85466 1.09478,1.63382 2.23029,3.32405 2.52334,3.75604 l 0.53282,0.78544 -0.0143,23.21731 -0.0143,23.21732 z"
       id="path9289-6"
       sodipodi:nodetypes="ccccscsssscccc" /><path
       style="fill:#000000;stroke-width:0.0571269"
       d="m -106.5242,671.20714 c -1.15713,-1.75781 -2.95143,-4.48871 -4.97326,-7.56923 -0.66501,-1.01324 -1.52746,-2.32649 -1.91653,-2.91832 -1.16253,-1.76837 -3.02079,-4.59752 -5.09053,-7.75018 -2.15939,-3.28925 -3.99784,-6.08816 -5.08472,-7.74114 -0.39275,-0.59731 -1.27965,-1.9476 -1.97088,-3.00062 -0.69123,-1.05304 -2.11798,-3.22542 -3.17054,-4.82755 -3.87364,-5.8961 -4.37134,-6.65384 -6.2835,-9.5665 -1.07262,-1.63383 -2.49936,-3.80607 -3.17054,-4.82722 -0.67119,-1.02114 -2.09794,-3.19338 -3.17054,-4.82721 -1.07261,-1.63383 -2.49936,-3.80607 -3.17054,-4.82721 -1.58621,-2.41326 -4.89531,-7.45294 -6.04421,-9.20519 -0.49628,-0.75692 -0.89474,-1.39721 -0.88546,-1.42286 0.009,-0.0257 2.03489,-2.08537 4.50134,-4.57715 2.46644,-2.49178 5.35687,-5.41188 6.42314,-6.48912 1.06629,-1.07723 1.95846,-1.95164 1.98261,-1.94311 0.0357,0.0126 1.53294,2.27741 3.42807,5.18546 0.40408,0.62006 0.42447,0.6512 6.84672,10.45421 2.97439,4.54016 6.68046,10.19571 8.23571,12.5679 1.55525,2.37219 2.99511,4.57014 3.1997,4.88434 0.20459,0.31421 0.62455,0.95688 0.93325,1.42817 2.05843,3.14266 10.78252,16.45924 13.13635,20.05151 1.56466,2.38791 2.979174,4.5473 3.143353,4.79865 0.164181,0.25136 1.821137,2.78079 3.682117,5.62095 1.860985,2.84015 3.395583,5.19512 3.410217,5.23326 0.02647,0.069 -12.746777,12.93911 -12.841667,12.93911 -0.0274,0 -0.54469,-0.75192 -1.14966,-1.67095 z m 13.198312,-16.6487 c -3.373135,-5.08222 -8.196872,-12.3456 -10.539752,-15.87031 l -1.8989,-2.85678 7.5e-4,-23.13635 7.5e-4,-23.13636 3.26613,3.28478 c 8.747655,8.79769 12.343826,12.41799 13.45026,13.54057 l 1.209085,1.22672 0.03277,2.14226 c 0.01802,1.17824 0.04869,11.85952 0.06815,23.73619 l 0.03537,21.59393 -1.500824,1.62812 c -0.825453,0.89546 -1.520984,1.63624 -1.545617,1.64617 -0.02463,0.0101 -1.184808,-1.6996 -2.578169,-3.79894 z"
       id="path9333"
       sodipodi:nodetypes="sssssssssssscsssssssssssssssscccsscsscscss" /></g><style
     id="style1741">.st0{fill-rule:evenodd;clip-rule:evenodd;fill:#6699cb}</style></svg>
