<?xml version="1.0" encoding="UTF-8" standalone="no"?>
<!-- Created with Inkscape (http://www.inkscape.org/) -->

<svg
   width="83.657608mm"
   height="83.64946mm"
   viewBox="0 0 83.657608 83.64946"
   version="1.1"
   id="svg5"
   xml:space="preserve"
   inkscape:version="1.2.2 (b0a8486541, 2022-12-01)"
   sodipodi:docname="python.svg"
   xmlns:inkscape="http://www.inkscape.org/namespaces/inkscape"
   xmlns:sodipodi="http://sodipodi.sourceforge.net/DTD/sodipodi-0.dtd"
   xmlns="http://www.w3.org/2000/svg"
   xmlns:svg="http://www.w3.org/2000/svg"><sodipodi:namedview
     id="namedview7"
     pagecolor="#ffffff"
     bordercolor="#000000"
     borderopacity="0.25"
     inkscape:showpageshadow="2"
     inkscape:pageopacity="0.0"
     inkscape:pagecheckerboard="0"
     inkscape:deskcolor="#d1d1d1"
     inkscape:document-units="mm"
     showgrid="false"
     inkscape:zoom="1.3056026"
     inkscape:cx="249.69313"
     inkscape:cy="-70.082581"
     inkscape:window-width="1873"
     inkscape:window-height="1216"
     inkscape:window-x="0"
     inkscape:window-y="0"
     inkscape:window-maximized="1"
     inkscape:current-layer="layer1" /><defs
     id="defs2" /><g
     inkscape:label="Layer 1"
     inkscape:groupmode="layer"
     id="layer1"
     transform="translate(163.81233,-589.39364)"><path
       style="fill:#000000;stroke-width:0.999999"
       d="m -123.5982,673.01136 c -3.55027,-0.13843 -7.00889,-0.73603 -9.96899,-1.72252 -1.0964,-0.36538 -1.9803,-0.72525 -2.98307,-1.21454 -1.79769,-0.87714 -3.05479,-1.73364 -4.14565,-2.82456 -1.12095,-1.12099 -1.80744,-2.2999 -2.09384,-3.59573 l -0.0944,-0.42731 4.3e-4,-6.84471 c 4.5e-4,-7.90125 0.0335,-9.09125 0.32874,-11.91185 0.63278,-6.04578 2.17211,-9.19207 5.22785,-10.68541 1.4833,-0.72489 3.47865,-1.16237 6.15036,-1.34848 1.57379,-0.10962 2.5504,-0.12888 8.27496,-0.16323 6.81096,-0.0409 8.18487,-0.0766 10.35902,-0.26975 3.93426,-0.34944 6.59649,-1.20341 8.55838,-2.74528 0.40552,-0.31871 1.30903,-1.23462 1.60182,-1.62381 1.05173,-1.39801 1.74738,-2.91231 2.2996,-5.00583 0.69817,-2.64685 1.104702,-6.71244 1.106507,-11.06575 l 4.49e-4,-1.27882 4.525682,0.0143 c 4.492148,0.0142 4.528621,0.015 4.922021,0.1044 1.868976,0.42465 3.520284,1.67604 4.997862,3.78741 0.979605,1.39981 1.935458,3.3688 2.610677,5.37781 2.353426,7.0023 2.353426,16.28177 0,23.28409 -0.675219,2.009 -1.631072,3.978 -2.610677,5.3778 -1.499103,2.14214 -3.204667,3.41556 -5.10217,3.80938 -0.308691,0.064 -1.496717,0.07 -16.341351,0.0816 l -16.00847,0.0126 v 1.04152 1.04154 h 10.46286 10.46285 l -0.0149,4.50525 c -0.0164,4.9581 -0.004,4.72185 -0.27524,5.54968 -0.40772,1.24766 -1.25407,2.44177 -2.48795,3.5102 -4.05913,3.51486 -11.72487,5.54345 -19.76353,5.23002 z m 14.07946,-6.66036 c 1.40985,-0.36138 2.54262,-1.54213 2.84052,-2.96083 0.0898,-0.42786 0.0901,-1.16535 4.5e-4,-1.58994 -0.24598,-1.1656 -1.04556,-2.18153 -2.12586,-2.70105 -1.91506,-0.92098 -4.22246,-0.11538 -5.15064,1.79829 -0.30421,0.62716 -0.36599,0.91347 -0.36599,1.69584 0,0.58101 0.013,0.71948 0.0938,1.00118 0.41975,1.46286 1.59117,2.53933 3.06883,2.82009 0.4306,0.0819 1.18598,0.0525 1.63888,-0.0636 z m -44.41915,-14.26408 c -1.95216,-0.22051 -3.81384,-1.50402 -5.40158,-3.72408 -1.02551,-1.43393 -2.00739,-3.43402 -2.70545,-5.51101 -2.52732,-7.5197 -2.32751,-17.51746 0.49236,-24.63679 0.33993,-0.8582 1.0484,-2.31156 1.47409,-3.02393 0.65578,-1.09744 1.29856,-1.94016 2.05638,-2.69604 1.11553,-1.11268 2.27977,-1.7939 3.57476,-2.09168 l 0.40728,-0.0937 16.0289,-0.0117 16.0289,-0.0117 v -1.04147 -1.04148 h -10.46301 -10.463 l 0.0143,-4.52568 c 0.014,-4.43963 0.016,-4.5329 0.101,-4.9048 0.23927,-1.04598 0.71314,-1.99425 1.4523,-2.90615 1.51853,-1.87342 4.33234,-3.58794 7.77345,-4.73655 2.73983,-0.91454 5.71073,-1.4603 9.19439,-1.68906 0.96006,-0.063 3.79243,-0.0634 4.78109,-4.5e-4 4.84323,0.30793 9.02617,1.32025 12.37159,2.99406 0.88124,0.44091 1.19767,0.62286 1.95124,1.122 2.04163,1.35234 3.35146,2.88185 3.91925,4.57659 0.28489,0.85035 0.26939,0.39052 0.26837,7.96555 -9e-4,6.91227 -0.015,7.75583 -0.16429,9.90952 -0.42614,6.14461 -1.63224,9.63813 -3.98247,11.53535 -1.77422,1.43224 -4.3512,2.1629 -8.60187,2.43894 -1.63084,0.10593 -2.92223,0.13036 -8.70403,0.16488 -3.39375,0.0202 -6.33596,0.0469 -6.53824,0.0593 -0.20227,0.0124 -0.78151,0.0419 -1.28721,0.0656 -4.47356,0.2096 -7.31664,0.9802 -9.45388,2.56239 -0.51577,0.38182 -1.42368,1.28928 -1.81862,1.81769 -1.07808,1.44249 -1.85615,3.26857 -2.39844,5.62899 -0.59917,2.60802 -0.95668,6.54647 -0.95796,10.55312 l -4.4e-4,1.29743 -4.32136,-0.005 c -2.37675,-0.003 -4.45928,-0.0209 -4.62785,-0.0399 z m 21.09788,-48.43958 c 1.2358,-0.2155 2.28608,-1.00429 2.82977,-2.12524 0.30421,-0.62717 0.36599,-0.91347 0.36599,-1.69585 0,-0.581 -0.013,-0.71947 -0.0938,-1.00117 -0.42457,-1.47967 -1.6133,-2.56033 -3.10195,-2.81993 -2.03187,-0.35432 -4.01349,0.99361 -4.44685,3.02484 -0.0914,0.42833 -0.0917,1.1628 -4.5e-4,1.58934 0.28445,1.33287 1.29152,2.46306 2.56935,2.88347 0.61666,0.20289 1.25976,0.25239 1.87815,0.14454 z"
       id="path1084" /></g></svg>
