<?xml version="1.0" encoding="UTF-8" standalone="no"?>
<!-- Created with Inkscape (http://www.inkscape.org/) -->

<svg
   width="83.60247mm"
   height="83.602493mm"
   viewBox="0 0 83.60247 83.602493"
   version="1.1"
   id="svg5"
   xml:space="preserve"
   inkscape:version="1.2.2 (b0a8486541, 2022-12-01)"
   sodipodi:docname="rust.svg"
   xmlns:inkscape="http://www.inkscape.org/namespaces/inkscape"
   xmlns:sodipodi="http://sodipodi.sourceforge.net/DTD/sodipodi-0.dtd"
   xmlns="http://www.w3.org/2000/svg"
   xmlns:svg="http://www.w3.org/2000/svg"><sodipodi:namedview
     id="namedview7"
     pagecolor="#ffffff"
     bordercolor="#000000"
     borderopacity="0.25"
     inkscape:showpageshadow="2"
     inkscape:pageopacity="0.0"
     inkscape:pagecheckerboard="0"
     inkscape:deskcolor="#d1d1d1"
     inkscape:document-units="mm"
     showgrid="false"
     inkscape:zoom="0.55616402"
     inkscape:cx="163.6208"
     inkscape:cy="-162.72178"
     inkscape:window-width="1873"
     inkscape:window-height="1216"
     inkscape:window-x="0"
     inkscape:window-y="0"
     inkscape:window-maximized="1"
     inkscape:current-layer="layer1" /><defs
     id="defs2" /><g
     inkscape:label="Layer 1"
     inkscape:groupmode="layer"
     id="layer1"
     transform="translate(163.81234,-589.44066)"><path
       style="fill:#000000;stroke-width:0.999998"
       d="m -122.59427,672.84848 c -0.21815,-0.13303 -0.66604,-0.77628 -1.41465,-2.03165 -0.60248,-1.01034 -1.10011,-1.84427 -1.10585,-1.85319 -0.006,-0.009 -0.27272,-0.0486 -0.59331,-0.0883 l -0.58289,-0.0721 -1.41528,1.56617 c -0.7784,0.8614 -1.4899,1.61817 -1.5811,1.68172 -0.45823,0.31927 -1.2664,0.20841 -1.54151,-0.21146 -0.0879,-0.13407 -0.48337,-1.13799 -0.87892,-2.23092 l -0.71919,-1.98715 -0.54362,-0.18478 -0.54362,-0.18479 -1.76967,1.29689 c -0.97332,0.71329 -1.89991,1.3285 -2.05908,1.36713 -0.36795,0.0893 -0.96246,-0.15327 -1.1732,-0.47871 -0.0902,-0.13921 -0.29994,-1.18321 -0.48242,-2.40072 -0.1776,-1.18491 -0.33515,-2.16474 -0.35011,-2.17741 -0.10724,-0.0908 -0.93849,-0.47122 -1.02956,-0.47122 -0.0624,0 -0.97874,0.40745 -2.03625,0.90543 -1.63144,0.76825 -1.98335,0.89763 -2.32275,0.85398 -0.46268,-0.0595 -0.66054,-0.1995 -0.87894,-0.62184 -0.13532,-0.26168 -0.14032,-0.59922 -0.0367,-2.48076 l 0.11989,-2.17787 -0.40493,-0.34672 c -0.22272,-0.19069 -0.48998,-0.3485 -0.59393,-0.35068 -0.10394,-0.002 -1.0402,0.20979 -2.08057,0.47106 -1.04036,0.26126 -2.04075,0.47502 -2.22307,0.47502 -0.45933,0 -1.04931,-0.58998 -1.04931,-1.04931 0,-0.18232 0.21376,-1.18271 0.47503,-2.22307 0.26126,-1.04037 0.47323,-1.97663 0.47106,-2.08057 -0.002,-0.10394 -0.15887,-0.36988 -0.3482,-0.59096 l -0.34424,-0.40198 -2.18127,0.11645 c -1.87775,0.10025 -2.22329,0.0947 -2.48324,-0.0397 -0.42141,-0.21792 -0.56144,-0.41604 -0.62093,-0.87847 -0.0436,-0.33939 0.0857,-0.69131 0.85398,-2.32275 0.49798,-1.05751 0.90543,-1.97382 0.90543,-2.03625 0,-0.0911 -0.38046,-0.92232 -0.47122,-1.02956 -0.0127,-0.015 -0.9925,-0.17251 -2.17742,-0.3501 -1.21749,-0.18249 -2.2615,-0.39228 -2.40071,-0.48243 -0.32587,-0.21102 -0.56813,-0.80532 -0.47823,-1.1732 0.0389,-0.15917 0.65437,-1.08496 1.36773,-2.05731 l 1.29701,-1.76791 -0.18538,-0.54538 -0.18539,-0.54539 -1.98714,-0.71919 c -1.09293,-0.39555 -2.09685,-0.79107 -2.23093,-0.87892 -0.41987,-0.27511 -0.53073,-1.08328 -0.21146,-1.5415 0.0636,-0.0912 0.82032,-0.8027 1.68172,-1.58111 l 1.56617,-1.41527 -0.0721,-0.5829 c -0.0397,-0.32059 -0.0794,-0.58758 -0.0883,-0.59331 -0.009,-0.006 -0.84284,-0.50337 -1.85318,-1.10585 -1.87905,-1.12052 -2.22632,-1.43214 -2.22632,-1.99777 0,-0.56564 0.34727,-0.87726 2.22632,-1.99777 1.01034,-0.60248 1.84427,-1.10012 1.85318,-1.10585 0.009,-0.006 0.0487,-0.27273 0.0883,-0.59332 l 0.0721,-0.58289 -1.56617,-1.41528 c -0.8614,-0.7784 -1.61817,-1.4899 -1.68172,-1.5811 -0.31927,-0.45823 -0.20841,-1.2664 0.21146,-1.5415 0.13408,-0.0879 1.138,-0.48337 2.23093,-0.87893 l 1.98714,-0.71919 0.18539,-0.54538 0.18538,-0.54539 -1.29701,-1.7679 c -0.71336,-0.97236 -1.32884,-1.89815 -1.36773,-2.05732 -0.0899,-0.36788 0.15236,-0.96217 0.47823,-1.1732 0.13921,-0.0901 1.18322,-0.29994 2.40071,-0.48242 1.18492,-0.1776 2.16475,-0.33515 2.17742,-0.35011 0.0908,-0.10723 0.47122,-0.93848 0.47122,-1.02956 0,-0.0624 -0.40745,-0.97873 -0.90543,-2.03625 -0.76825,-1.63144 -0.89763,-1.98335 -0.85398,-2.32274 0.0595,-0.46244 0.19952,-0.66055 0.62093,-0.87847 0.25995,-0.13443 0.60549,-0.13995 2.48324,-0.0397 l 2.18127,0.11645 0.34424,-0.40197 c 0.18933,-0.22109 0.34601,-0.48702 0.3482,-0.59096 0.002,-0.10395 -0.2098,-1.0402 -0.47106,-2.08057 -0.26127,-1.04037 -0.47503,-2.04075 -0.47503,-2.22307 0,-0.45934 0.58998,-1.04932 1.04931,-1.04932 0.18232,0 1.18271,0.21376 2.22307,0.47503 1.04037,0.26126 1.97663,0.47324 2.08057,0.47106 0.10395,-0.002 0.37121,-0.15999 0.59393,-0.35069 l 0.40493,-0.34672 -0.11989,-2.17787 c -0.10358,-1.88153 -0.0986,-2.21908 0.0367,-2.48075 0.2184,-0.42234 0.41626,-0.56233 0.87894,-0.62184 0.3394,-0.0437 0.69131,0.0857 2.32275,0.85397 1.05751,0.49799 1.97382,0.90543 2.03625,0.90543 0.0911,0 0.92232,-0.38046 1.02956,-0.47122 0.015,-0.0127 0.17251,-0.9925 0.35011,-2.17741 0.18248,-1.2175 0.39227,-2.26151 0.48242,-2.40072 0.21074,-0.32543 0.80525,-0.56801 1.1732,-0.4787 0.15917,0.0386 1.08576,0.65384 2.05908,1.36712 l 1.76967,1.29689 0.54362,-0.18478 0.54362,-0.18478 0.71919,-1.98715 c 0.39555,-1.09293 0.79107,-2.09685 0.87892,-2.23093 0.27511,-0.41987 1.08328,-0.53073 1.54151,-0.21146 0.0912,0.0635 0.8027,0.82032 1.5811,1.68172 l 1.41528,1.56618 0.58289,-0.0721 c 0.32059,-0.0397 0.58758,-0.0794 0.59331,-0.0883 0.006,-0.009 0.50337,-0.84285 1.10585,-1.85319 1.12052,-1.87905 1.43214,-2.22632 1.99777,-2.22632 0.56563,0 0.87725,0.34727 1.99777,2.22632 0.60248,1.01034 1.10012,1.84428 1.10585,1.85319 0.006,0.009 0.27273,0.0487 0.59332,0.0883 l 0.58289,0.0721 1.41528,-1.56618 c 0.7784,-0.8614 1.4899,-1.61817 1.5811,-1.68172 0.45822,-0.31927 1.2664,-0.20841 1.5415,0.21146 0.0878,0.13408 0.48337,1.138 0.87893,2.23093 l 0.71919,1.98715 0.54538,0.18538 0.54538,0.18538 1.76791,-1.29701 c 0.97235,-0.71336 1.89814,-1.32884 2.05732,-1.36773 0.36788,-0.0899 0.96217,0.15236 1.1732,0.47823 0.0901,0.13921 0.29994,1.18322 0.48242,2.40072 0.17759,1.18491 0.33514,2.16474 0.35011,2.17741 0.11287,0.0955 0.94101,0.47122 1.03873,0.47122 0.0675,0 0.98379,-0.40776 2.03625,-0.90613 1.628626,-0.77119 1.973139,-0.89836 2.31357,-0.85397 0.462873,0.0604 0.66067,0.20044 0.878946,0.62254 0.135317,0.26167 0.140315,0.59922 0.03674,2.48075 l -0.119893,2.17787 0.404936,0.34672 c 0.222716,0.1907 0.489982,0.34851 0.593926,0.35069 0.103944,0.002 1.0402,-0.2098 2.080568,-0.47106 1.040368,-0.26127 2.040752,-0.47503 2.223074,-0.47503 0.459334,0 1.04931,0.58998 1.04931,1.04932 0,0.18232 -0.21376,1.1827 -0.475023,2.22307 -0.261263,1.04037 -0.47324,1.97662 -0.47106,2.08057 0.0022,0.10394 0.158869,0.36987 0.348198,0.59096 l 0.344233,0.40197 2.181275,-0.11645 c 1.87775,-0.10025 2.223293,-0.0947 2.483242,0.0397 0.421407,0.21792 0.561439,0.41603 0.620924,0.87847 0.04366,0.33939 -0.08573,0.6913 -0.853977,2.32274 -0.497985,1.05752 -0.905427,1.97383 -0.905427,2.03625 0,0.0911 0.380455,0.92233 0.471219,1.02956 0.01266,0.015 0.992499,0.17251 2.177411,0.35011 1.217501,0.18248 2.261507,0.39227 2.400715,0.48242 0.325438,0.21075 0.568017,0.80525 0.478711,1.1732 -0.03863,0.15917 -0.653842,1.08576 -1.36713,2.05908 l -1.296886,1.76968 0.185048,0.5444 0.185048,0.5444 1.965882,0.70465 c 1.081236,0.38755 2.085034,0.78272 2.230664,0.87814 0.297481,0.19491 0.489428,0.7453 0.40817,1.17037 -0.06296,0.32938 -0.22591,0.49963 -2.053691,2.14581 l -1.370103,1.23397 0.07221,0.58364 c 0.03972,0.321 0.07951,0.58832 0.08842,0.59406 0.0089,0.006 0.842845,0.50337 1.853184,1.10585 1.879052,1.12051 2.22632,1.43213 2.22632,1.99777 0,0.56563 -0.347268,0.87725 -2.22632,1.99777 -1.010339,0.60248 -1.844272,1.10011 -1.853184,1.10585 -0.0089,0.006 -0.0487,0.27306 -0.08842,0.59406 l -0.07221,0.58363 1.370103,1.23398 c 1.827781,1.64617 1.990726,1.81643 2.053691,2.14581 0.08126,0.42507 -0.110689,0.97545 -0.40817,1.17037 -0.14563,0.0954 -1.149428,0.49058 -2.230664,0.87814 l -1.965882,0.70464 -0.185048,0.5444 -0.185048,0.54441 1.296886,1.76967 c 0.713288,0.97332 1.328495,1.89991 1.36713,2.05908 0.08931,0.36795 -0.153273,0.96246 -0.478711,1.1732 -0.139208,0.0901 -1.183214,0.29994 -2.400715,0.48243 -1.184912,0.17759 -2.164747,0.33514 -2.177411,0.3501 -0.09076,0.10724 -0.471219,0.93849 -0.471219,1.02956 0,0.0624 0.407442,0.97874 0.905427,2.03625 0.768249,1.63144 0.897633,1.98336 0.853977,2.32275 -0.05949,0.46243 -0.199517,0.66055 -0.620924,0.87847 -0.259949,0.13442 -0.605492,0.13994 -2.483242,0.0397 l -2.181275,-0.11645 -0.344233,0.40198 c -0.189329,0.22108 -0.346018,0.48702 -0.348198,0.59096 -0.0022,0.10394 0.209797,1.0402 0.47106,2.08057 0.261263,1.04036 0.475023,2.04075 0.475023,2.22307 0,0.45933 -0.589976,1.04931 -1.04931,1.04931 -0.182322,0 -1.182706,-0.21376 -2.223074,-0.47502 -1.040368,-0.26127 -1.976624,-0.47324 -2.080568,-0.47106 -0.103944,0.002 -0.37121,0.15999 -0.593926,0.35068 l -0.404936,0.34672 0.119893,2.17787 c 0.103579,1.88154 0.09858,2.21908 -0.03674,2.48076 -0.218276,0.42209 -0.416073,0.56219 -0.878946,0.62254 -0.340431,0.0444 -0.684944,-0.0828 -2.31357,-0.85398 -1.05246,-0.49837 -1.96877,-0.90613 -2.03625,-0.90613 -0.0977,0 -0.92586,0.37569 -1.03873,0.47122 -0.015,0.0127 -0.17252,0.9925 -0.35011,2.17741 -0.18248,1.21751 -0.39228,2.26151 -0.48242,2.40072 -0.21103,0.32588 -0.80532,0.56813 -1.1732,0.47823 -0.15918,-0.0389 -1.08497,-0.65437 -2.05732,-1.36772 l -1.76791,-1.29702 -0.54538,0.18539 -0.54538,0.18538 -0.71919,1.98715 c -0.39556,1.09293 -0.79107,2.09685 -0.87893,2.23092 -0.2751,0.41987 -1.08328,0.53073 -1.5415,0.21146 -0.0912,-0.0635 -0.8027,-0.82032 -1.5811,-1.68172 l -1.41528,-1.56617 -0.58289,0.0721 c -0.32059,0.0397 -0.58759,0.0794 -0.59332,0.0883 -0.006,0.009 -0.50337,0.84285 -1.10585,1.85319 -1.12052,1.87905 -1.43214,2.22632 -1.99777,2.22632 -0.14515,0 -0.40755,-0.0876 -0.58312,-0.19467 z m 2.86374,-10.99678 c 2.69081,-0.21419 5.22789,-0.73615 7.69488,-1.58309 1.39837,-0.48009 3.2196,-1.24787 3.2196,-1.3573 0,-0.0385 0.2138,-1.39558 0.4751,-3.01565 0.29189,-1.80963 0.54153,-3.05033 0.64734,-3.21721 0.43297,-0.68288 0.99941,-1.07786 1.7277,-1.20473 0.22606,-0.0394 1.4962,0.11561 3.27238,0.39931 l 2.902926,0.46368 0.404329,-0.3872 c 0.435137,-0.41669 1.970789,-2.26591 1.970789,-2.37319 0,-0.0358 -3.028274,-0.0786 -6.729504,-0.0951 l -6.7295,-0.0301 -0.59238,-0.29106 c -0.33438,-0.16429 -0.83197,-0.54438 -1.14248,-0.8727 -1.00968,-1.06758 -1.50616,-2.45598 -2.47668,-6.92598 -0.45064,-2.07557 -0.78002,-3.1322 -1.31028,-4.20337 -0.4423,-0.89349 -1.31645,-1.85963 -1.99642,-2.20653 -0.99344,-0.50681 -1.38153,-0.54277 -5.85737,-0.54277 h -4.20025 v 2.79736 2.79736 h 3.47057 c 2.80411,0 3.49355,0.0277 3.5902,0.14413 0.086,0.10365 0.11189,1.43051 0.0921,4.72384 l -0.0275,4.57972 -12.64089,0.0268 c -6.9525,0.0148 -12.64091,0.0575 -12.64091,0.0951 0,0.1098 1.52848,1.95292 1.97079,2.37648 l 0.40433,0.3872 2.90292,-0.46368 c 1.77618,-0.2837 3.04633,-0.43869 3.27239,-0.39931 0.7284,0.12689 1.2947,0.52182 1.72788,1.205 0.10635,0.16773 0.35768,1.42153 0.65592,3.27218 0.26593,1.65013 0.49891,3.01565 0.51773,3.03448 0.10511,0.1051 2.13697,0.92568 3.19857,1.29176 3.90999,1.3483 8.17215,1.89723 12.22575,1.57456 z m -19.89493,-2.71998 c 0.43679,-0.22746 0.64468,-0.4255 0.90932,-0.86621 0.98011,-1.63221 -0.14535,-3.64197 -2.03205,-3.62866 -1.37534,0.01 -2.37848,1.01794 -2.3728,2.38485 0.008,1.83113 1.87107,2.95597 3.49553,2.11002 z m 37.22562,0.13119 c 0.89065,-0.37148 1.49451,-1.27462 1.49853,-2.24121 0.006,-1.36691 -0.99746,-2.37515 -2.3728,-2.38485 -1.39248,-0.01 -2.37512,1.00061 -2.37512,2.4423 0,1.63826 1.7452,2.81113 3.24939,2.18376 z m -39.45673,-29.23499 v -9.9755 h -2.63902 c -1.45146,0 -2.63902,0.0205 -2.63902,0.0456 0,0.0251 0.21376,0.48476 0.47502,1.02156 0.3749,0.77026 0.47454,1.08885 0.47271,1.51145 -0.003,0.67812 -0.27742,1.28574 -0.78024,1.72722 -0.2164,0.19 -1.52628,0.91225 -2.91085,1.605 -1.38457,0.69274 -2.54305,1.30103 -2.57439,1.35175 -0.0314,0.0507 -0.11601,0.9319 -0.18814,1.95818 -0.23602,3.35824 0.10252,6.59051 1.08242,10.33441 l 0.10361,0.39585 h 4.79895 4.79895 z m 44.459801,9.76094 c 0.550041,-0.15277 1.333168,-0.71534 1.685128,-1.21052 0.563132,-0.79229 0.748202,-1.53224 0.818462,-3.27238 l 0.06393,-1.58342 1.705704,-0.029 1.705704,-0.029 0.0769,-1.02577 c 0.07484,-0.99818 6.6e-5,-3.44397 -0.144362,-4.72215 l -0.07157,-0.63336 -2.610469,-1.32409 c -1.435759,-0.72824 -2.759939,-1.46453 -2.942623,-1.63619 -0.461752,-0.43388 -0.722703,-1.0515 -0.725456,-1.71698 -0.0021,-0.51165 0.118833,-0.79949 1.390633,-3.30952 l 1.392953,-2.74913 -0.300443,-0.54345 c -1.616781,-2.92447 -4.607991,-6.42534 -7.394042,-8.65387 -3.69322,-2.95416 -8.10489,-5.07896 -12.65797,-6.09648 l -0.94072,-0.21024 -2.2261,2.20933 c -2.34175,2.32412 -2.50817,2.44227 -3.44005,2.44227 -0.93211,0 -1.09795,-0.11781 -3.44517,-2.44735 l -2.23122,-2.21443 -1.35784,0.3287 c -4.21466,1.02025 -8.0101,2.79709 -11.36674,5.32136 -1.21312,0.91229 -3.55433,2.98472 -3.97287,3.51677 l -0.23532,0.29914 17.13681,0.0531 17.13682,0.0531 1.05561,0.28997 c 1.44512,0.39697 3.37393,1.36726 4.46461,2.24595 1.80977,1.458 3.05339,3.24669 3.7776,5.43326 0.27467,0.8293 0.2976,1.0252 0.3027,2.58624 0.006,1.86546 -0.14117,2.57433 -0.81057,3.90203 -0.81574,1.61796 -2.25281,3.20354 -3.91047,4.3146 l -0.91943,0.61625 0.77284,0.77283 c 0.86293,0.86293 1.85169,2.24705 2.43508,3.40872 0.40815,0.81274 1.01293,2.50533 1.01307,2.83526 5e-5,0.10755 0.13678,0.48057 0.30385,0.82892 0.60822,1.26816 1.880475,2.05156 3.337916,2.05534 0.406408,10e-4 0.913606,-0.0466 1.127105,-0.1059 z m -19.303961,-14.29917 c 1.29297,-0.33678 2.23658,-1.05813 2.55574,-1.95376 0.46026,-1.29158 -0.50042,-2.63288 -2.32422,-3.24507 -0.46236,-0.1552 -1.23782,-0.18169 -6.25447,-0.21363 l -5.72667,-0.0365 v 2.80318 2.80319 h 5.57254 c 4.59898,0 5.67816,-0.0275 6.17708,-0.15746 z m -34.53818,-1.96017 c 1.52641,-0.77872 1.77121,-2.8986 0.45957,-3.97976 -1.01448,-0.83622 -2.48983,-0.71404 -3.33762,0.2764 -0.66871,0.78124 -0.79485,1.73007 -0.34897,2.62484 0.60786,1.21982 2.02298,1.69277 3.22702,1.07852 z m 60.182336,0.17831 c 0.680046,-0.20466 1.187914,-0.63014 1.500206,-1.25683 0.445885,-0.89477 0.319739,-1.8436 -0.34897,-2.62484 -1.34092,-1.56656 -3.862801,-0.80952 -4.193549,1.25887 -0.182499,1.14128 0.701959,2.37833 1.90866,2.66955 0.479871,0.1158 0.611586,0.11037 1.133653,-0.0467 z M -121.0611,601.57041 c 0.97028,-0.43988 1.41508,-1.1335 1.42116,-2.21618 0.003,-0.59262 -0.0429,-0.77018 -0.31557,-1.21116 -0.19801,-0.32028 -0.51592,-0.63819 -0.8362,-0.8362 -0.4397,-0.27185 -0.6215,-0.31948 -1.21944,-0.31948 -0.59794,0 -0.77974,0.0476 -1.21944,0.31948 -0.32028,0.19801 -0.63819,0.51592 -0.8362,0.8362 -0.56339,0.91125 -0.39012,2.26061 0.38279,2.98103 0.38526,0.35911 1.15021,0.66167 1.67285,0.66167 0.26126,0 0.68878,-0.0969 0.95005,-0.21536 z"
       id="path977" /></g></svg>
