<?xml version="1.0" encoding="UTF-8" standalone="no"?>
<!-- Created with Inkscape (http://www.inkscape.org/) -->

<svg
   width="83.657608mm"
   height="83.64946mm"
   viewBox="0 0 83.657608 83.64946"
   version="1.1"
   id="svg5"
   xml:space="preserve"
   inkscape:version="1.2.2 (b0a8486541, 2022-12-01)"
   sodipodi:docname="webassembly.svg"
   xmlns:inkscape="http://www.inkscape.org/namespaces/inkscape"
   xmlns:sodipodi="http://sodipodi.sourceforge.net/DTD/sodipodi-0.dtd"
   xmlns="http://www.w3.org/2000/svg"
   xmlns:svg="http://www.w3.org/2000/svg"><sodipodi:namedview
     id="namedview7"
     pagecolor="#ffffff"
     bordercolor="#000000"
     borderopacity="0.25"
     inkscape:showpageshadow="2"
     inkscape:pageopacity="0.0"
     inkscape:pagecheckerboard="0"
     inkscape:deskcolor="#d1d1d1"
     inkscape:document-units="mm"
     showgrid="false"
     inkscape:zoom="0.096775556"
     inkscape:cx="-1839.3074"
     inkscape:cy="-625.15786"
     inkscape:window-width="1873"
     inkscape:window-height="1190"
     inkscape:window-x="0"
     inkscape:window-y="0"
     inkscape:window-maximized="1"
     inkscape:current-layer="layer1"
     showguides="true" /><defs
     id="defs2"><path
       id="SVGID_1_"
       d="m147.49 30.14 51.21 29.61 51.08-27.24-52.39-25.78z" /></defs><g
     inkscape:label="Layer 1"
     inkscape:groupmode="layer"
     id="layer1"
     transform="translate(163.81233,-589.39364)"><path
       style="fill:#101010;fill-opacity:1;stroke-width:0.068514"
       d="m -163.09197,631.21815 v -41.10847 h 15.81718 15.81718 l 0.0401,0.94207 c 0.0221,0.51814 0.0904,1.1733 0.15187,1.45593 0.8293,3.81373 3.8377,6.69112 7.70537,7.3698 0.77317,0.13566 2.26797,0.13403 3.12217,-0.003 2.34125,-0.37675 4.53676,-1.71638 5.99422,-3.65749 1.15909,-1.54373 1.7643,-3.24389 1.8873,-5.30184 l 0.0481,-0.80504 h 15.816693 15.816707 v 41.10847 41.10847 h -41.10841 -41.10848 z m 30.89987,32.29899 c 0,-0.0218 0.94229,-4.39217 2.09397,-9.71188 1.15168,-5.31971 2.112,-9.76044 2.13403,-9.8683 0.0268,-0.13107 0.0559,-0.16515 0.0877,-0.10277 0.0262,0.0513 0.93889,4.51023 2.02818,9.90867 l 1.98054,9.81533 2.73546,-0.0178 2.73547,-0.0178 3.47277,-14.55925 3.47275,-14.55925 -2.67521,-0.0179 c -1.73577,-0.0116 -2.69014,0.006 -2.71772,0.0508 -0.0234,0.0378 -0.97828,4.50103 -2.12202,9.91823 -1.14374,5.4172 -2.09784,9.90113 -2.12024,9.96428 -0.0224,0.0632 -0.94939,-4.39968 -2.05999,-9.91742 l -2.0193,-10.03225 h -2.57281 -2.57283 l -2.2248,9.86286 c -1.22364,5.42456 -2.24321,9.84116 -2.26573,9.81464 -0.036,-0.0424 -3.69815,-19.49481 -3.69485,-19.62611 7.7e-4,-0.0283 -1.25069,-0.0514 -2.78088,-0.0514 -2.19671,0 -2.77556,0.018 -2.75089,0.0856 0.0172,0.0471 1.43102,6.614 3.14186,14.59311 l 3.11059,14.50747 2.79195,7.8e-4 c 1.53557,0 2.79195,-0.0175 2.79195,-0.0393 z m 26.02413,-3.23232 0.71895,-3.23775 4.86317,0.0176 4.863153,0.0176 0.92471,3.23729 0.9247,3.23729 h 2.84162 2.84161 l -0.0384,-0.14695 c -0.0211,-0.0808 -1.94339,-6.6479 -4.27167,-14.59351 l -4.23326,-14.44656 -4.317693,10e-6 -4.31771,1e-5 -3.48911,14.40509 c -1.91902,7.92279 -3.50267,14.49022 -3.51924,14.59428 l -0.0301,0.1892 2.76019,-0.0179 2.76018,-0.0179 z m 1.7926,-8.1197 c 0,-0.0862 2.23239,-10.18304 2.30227,-10.41292 0.0328,-0.10785 0.14963,-0.1199 1.16231,-0.1199 0.61922,0 1.125858,0.02 1.125858,0.0445 0,0.0245 0.601215,2.39741 1.336035,5.27321 0.73481,2.8758 1.33602,5.24522 1.33602,5.26537 0,0.0201 -1.63406,0.0366 -3.631243,0.0366 -2.88672,0 -3.63125,-0.0178 -3.63125,-0.0869 z"
       id="path5447" /></g><style
     id="style1741">.st0{fill-rule:evenodd;clip-rule:evenodd;fill:#6699cb}</style></svg>
